<?xml version="1.0" encoding="iso-8859-1"?>
<!-- Uploaded to: SVG Repo, www.svgrepo.com, Generator: SVG Repo Mixer Tools -->
<svg height="800px" width="800px" version="1.1" id="Layer_1" xmlns="http://www.w3.org/2000/svg" xmlns:xlink="http://www.w3.org/1999/xlink" 
	 viewBox="0 0 512 512" xml:space="preserve">
<path style="fill:#B1532F;" d="M356.174,0H256c-1.003,0-1.891,0.111-2.783,0.334c-0.557,0-1.113,0.223-1.67,0.334
	c-0.667,0.111-1.336,0.334-2.005,0.668c-6.009,2.449-10.239,8.459-10.239,15.36v66.783c0,9.238,7.456,16.696,16.696,16.696h66.783
	c27.603,0,50.087-22.483,50.087-50.087V16.696C372.87,7.457,365.413,0,356.174,0z"/>
<path style="fill:#E2E7EC;" d="M265.795,3.117C262.901,1.113,259.563,0,256.111,0H256c-1.003,0-1.891,0.111-2.783,0.334
	c-0.557,0-1.113,0.223-1.67,0.334c-0.667,0.111-1.336,0.334-2.005,0.668c-3.449,1.113-6.788,2.337-10.239,3.673
	C118.983,50.31,38.957,165.176,38.957,294.623v22.595c0,9.238,7.456,16.696,16.696,16.696H256c9.239,0,16.696-7.457,16.696-16.696
	V16.696C272.696,11.353,270.136,6.233,265.795,3.117z"/>
<path style="fill:#CCD5E0;" d="M456.348,333.913H256c-9.217,0-16.696-7.473-16.696-16.696V83.478
	c0-8.582,6.511-15.766,15.054-16.614c8.565-0.826,16.326,4.93,18.011,13.336c19.804,98.994,87.587,180.478,181.305,217.967
	l8.881,3.548c7.424,2.973,11.707,10.799,10.184,18.658C471.228,328.233,464.348,333.913,456.348,333.913z"/>
<path style="fill:#8C6D50;" d="M272.696,0v395.13c0,9.238-7.456,16.696-16.696,16.696s-16.696-7.457-16.696-16.696V5.009
	c3.452-1.337,6.79-2.56,10.239-3.673c0.669-0.334,1.337-0.557,2.005-0.668c0.557-0.111,1.113-0.334,1.67-0.334
	C254.109,0.111,254.997,0,256,0H272.696z"/>
<path style="fill:#765B43;" d="M272.696,395.13V0H256v411.826C265.239,411.826,272.696,404.369,272.696,395.13z"/>
<path style="fill:#78A8E2;" d="M389.565,512h-267.13C57.99,512,5.565,459.571,5.565,395.13c0-9.223,7.479-16.696,16.696-16.696
	h467.478c9.217,0,16.696,7.473,16.696,16.696C506.435,459.571,454.01,512,389.565,512z"/>
<path style="fill:#6B96C8;" d="M489.739,378.435H256V512h133.565c64.445,0,116.87-52.429,116.87-116.87
	C506.435,385.908,498.956,378.435,489.739,378.435z"/>
</svg>