<?xml version="1.0" encoding="utf-8"?>
<!-- Generator: Adobe Illustrator 16.0.0, SVG Export Plug-In . SVG Version: 6.00 Build 0)  -->
<!DOCTYPE svg PUBLIC "-//W3C//DTD SVG 1.1//EN" "http://www.w3.org/Graphics/SVG/1.1/DTD/svg11.dtd">
<svg version="1.1" id="Layer_1" xmlns="http://www.w3.org/2000/svg" xmlns:xlink="http://www.w3.org/1999/xlink" x="0px" y="0px"
	 width="500px" height="500px" viewBox="0 0 500 500" enable-background="new 0 0 500 500" xml:space="preserve">
<path fill="#FFFFFF" d="M115.716,400.5c0,0,15.967-11.845,17.513-19.056c1.547-7.209-9.792-32.459-22.67-44.308
	c-12.886-11.839-37.093-12.366-42.767,0c-5.664,12.379-6.687,18.656-20.052,32.497c-13.377,13.846-18.385,15.521-9.548,27.703
	c8.83,12.17,59.196,62.535,123.655,82.108c12.198,3.709,41.531,14.32,87.837,14.32c46.303,0,109.326-12.647,168.05-56.573
	c8.332-6.223,46.711-36.795,48.216-50.357c1.189-10.73-12.412-19.095-20.527-33.421c-8.116-14.333-10.263-37.955-43.693-25.303
	c-2.697,1.025-9.137,4.45-12.409,10.012c-3.266,5.577-12.176,17.455-18.624,24.366c-6.443,6.919-5.239,15.516-0.465,21.252
	c2.815,3.372,16.467,14.555,16.467,14.555c-41.535,27.446-75.098,44.028-136.307,45.351
	C243.939,443.774,180.215,447.445,115.716,400.5"/>
<path fill="#00B38C" d="M72.781,223.052c0,0-0.795,85.755,64.898,151.455c53.322,53.313,112.05,63.348,112.05,63.348V148.863H72.781
	V223.052z"/>
<path fill="#009CD5" d="M426.683,223.052c0,0,0.782,85.755-64.902,151.455c-53.321,53.313-112.04,63.348-112.04,63.348V148.863
	h176.947v74.189H426.683z"/>
<rect x="72.729" y="6.072" fill="#EE4023" width="353.955" height="142.792"/>
<path fill="#FFD430" d="M371.306,347.463h-96.533c0,0-2.12,21.885-23.912,21.404c-24.353-0.545-23.908-21.404-23.908-21.404h-94.834
	V174.874h239.187L371.306,347.463L371.306,347.463z"/>
<path fill="#FFFFFF" d="M160.371,167.026c0,0,9.654,7.15,23.255,5.179c13.579-1.959,39.688-15.724,54.701-7.871
	c15.019,7.871,12.865,5.734,12.865,5.734s15.557-16.091,39.876-10.013c24.31,6.08,23.959,12.964,36.292,11.616
	c12.687-1.383,15.016-5.36,15.016-5.36v149.2c0,0-8.753,9.566-27.882,5.631c-19.134-3.931-33.609-18.043-63.641,1.804
	c0,0-16.983-12.173-34.865-9.133c-17.88,3.042-36.365,17.189-57.429,5.828l0.397-149.573L160.371,167.026z"/>
<path fill="#FFD300" d="M371.64,121.113c4.109-0.094,7.039,1.126,9.276,2.957l-0.377,0.752c-2.715,0.851-4.776,3.71-7.04,3.332
	c-1.664-0.502-1.538-0.927-2.612-1.852C370.84,124.059,371.059,122.469,371.64,121.113"/>
<path fill="#FFD300" d="M100.876,104.424c5.816,0.996,10.164,7.712,12.979,11.868v0.365h-1.856
	c-5.886-1.764-11.185-1.785-13.348-7.416C99.291,106.993,99.783,105.956,100.876,104.424"/>
<path fill="#FFD300" d="M158.177,41.006l-2.231-0.313c-0.996,3.247,1.516,6.851,4.636,8.098c0.871,0.114,1.731,0.247,2.603,0.373
	c0.745-1.121,1.481-2.229,2.229-3.345c0.311-0.675,0.126-1.292-1.42-0.98C163.988,44.84,161.711,42.417,158.177,41.006"/>
<rect x="248.956" y="169.918" fill="#785342" width="2.311" height="152.823"/>
<path fill="#3D1E0B" d="M425.084,146.781H75.026V7.857h350.058V146.781L425.084,146.781z M425.522,208.165
	c0,84.297-42.483,147.208-86.253,183.237c-35.47,29.204-73.648,41.616-86.224,43.721l-0.459-64.928
	c-1.391-0.055-2.683-0.33-3.864-0.753l0.104,65.623c-33.401-2.438-173.784-65.189-173.784-226.899v-57.526h173.386l-0.048,21.522
	c1.057,1.705,2.517,2.015,3.895,0.915V150.63h173.246L425.522,208.165L425.522,208.165z M71.191,4v204.165
	c0,89.743,42.109,146.525,77.436,178.389c42.081,37.93,93.882,53.563,101.158,53.563c8.567,0,51.956-15.908,78.763-35.099
	c48.128-34.437,98.86-97.592,100.404-196.854V4H71.191z"/>
<path fill="#3D1E0B" d="M467.066,380.296c-1.245-4.05-3.146-6.32-6.605-10.408c-2.77-3.309-6.588-7.813-12.105-15.645
	c-4.106-5.794-6.486-10.919-8.594-15.411c-3.85-8.218-6.603-14.138-16.359-15.815c-11.301-1.917-20.949,2.077-29.206,8.211
	c-2.611,4.308-5.325,8.438-8.145,12.458c9.857-10.298,21.697-19.388,36.705-16.84c7.736,1.307,9.78,5.674,13.484,13.624
	c2.065,4.41,4.645,9.934,8.948,16.027c5.609,7.938,9.479,12.531,12.307,15.899c3.326,3.945,4.849,5.743,5.866,9.062
	c1.479,4.8,0.824,11.232-13.813,25.876c-39.708,39.699-87.669,66.169-142.568,78.692c-19.945,4.534-57.399,6.105-57.784,6.118
	c-0.205-0.013-37.669-1.584-57.6-6.118C110.636,467.583,67.93,424.82,53.911,410.772l-0.738-0.75
	c-13.196-13.185-18.48-18.762-16.779-24.32c0.833-2.688,2.781-4.535,6.022-7.596c3.791-3.584,8.998-8.513,15.608-17.861
	c4.264-6.061,6.881-11.566,8.972-15.989c3.708-7.827,5.943-12.557,13.735-13.88c12.07-2.046,20.177,2.019,27.361,8.605
	c-1.812-2.801-3.595-5.708-5.326-8.694c-6.17-3.525-13.431-5.285-22.685-3.716c-9.773,1.655-12.619,7.684-16.583,16.04
	c-2.13,4.501-4.538,9.626-8.62,15.384c-6.384,9.06-11.437,13.814-15.11,17.303c-3.44,3.255-5.921,5.605-7.052,9.261
	c-2.46,8.006,4.286,14.757,17.741,28.205l0.727,0.738c14.225,14.242,57.524,57.594,139.555,76.281
	c20.291,4.634,56.932,6.154,58.472,6.217c1.709-0.062,38.36-1.583,58.646-6.217c55.628-12.671,104.218-39.499,144.44-79.716
	C465.468,396.889,469.623,388.538,467.066,380.296 M125.083,376.216c0.092,3.995-2.09,6.174-4.267,6.563
	c-2.436,0.44-6.035-1.246-8.175-7.395c-3.522-10.213-11.609-23.398-11.959-23.961l-1.434-2.334c0,0-13.385,16.971-15.853,20.119
	c-5.332-7.242-8.39-14.098-8.39-20.024l0.015-0.859c0.256-5.088,1.901-8.335,5.021-9.874c7.04-3.483,20.014,2.515,22.692,4.354
	C118.94,353.949,124.913,367.385,125.083,376.216 M409.873,350.116l-1.451,1.131c-0.396,0.298-9.453,7.35-14.953,19.584
	c-2.47,5.487-8.43,9.522-13.048,8.814c-3.936-0.606-5.212-4.438-5.576-7.553c-1.089-9.29,7.069-20.879,21.83-31.051
	c3.312-2.293,18.976-9.887,26.537-6.124c2.814,1.38,4.298,4.265,4.515,8.764l0.013,0.872c0,5.529-2.501,11.816-6.929,18.524
	C418.555,360.396,409.873,350.116,409.873,350.116 M78.324,334.97c-4.431,2.2-6.837,6.614-7.17,13.145
	c-1.204,23.968,40.997,60.539,94.061,81.564c27.335,10.83,54.841,16.087,84.073,16.087c31.174,0,66.069-7.868,84.431-15.648
	c49.139-20.804,99.184-58.878,97.854-86.597c-0.283-5.96-2.524-10.024-6.654-12.062c-10.004-4.964-27.625,4.449-30.442,6.408
	c-16.205,11.146-24.746,23.791-23.471,34.681c0.731,6.197,3.943,10.174,8.817,10.931c6.394,0.98,13.951-3.874,17.171-11.049
	c3.86-8.596,9.728-14.515,12.37-16.911c1.812,2.136,7.827,9.26,9.132,10.802c-7.129,9.563-18.058,19.793-31.573,29.638
	c-1.799-1.395-11.275-8.805-15.184-13.006c-4.489-4.877-4.843-11.682-1.318-19.203c-2.003,2.292-4.036,4.534-6.08,6.721
	c-0.772,5.733,0.729,10.929,4.574,15.096c3.671,3.96,11.641,10.317,14.732,12.743c-14.794,10.38-32.413,20.237-51.424,28.277
	c-18.009,7.61-52.267,15.316-82.926,15.316c-28.739,0-55.787-5.154-82.653-15.81c-17.694-6.986-34.292-15.894-48.398-25.43
	c3.136-2.833,10.308-9.392,13.8-13.176c3.158-3.399,4.378-8.037,3.822-13.314c-1.77-1.831-3.523-3.741-5.287-5.704
	c2.468,6.722,2.134,12.614-1.363,16.387c-3.635,3.932-11.67,11.233-14.241,13.556c-12.111-8.534-22.164-17.491-29.167-26.027
	c1.411-1.8,10.432-13.266,13.008-16.517c2.497,4.268,7.641,13.465,10.175,20.789c2.92,8.461,8.555,10.638,12.503,9.937
	c4.496-0.81,7.567-5.092,7.445-10.43c-0.2-9.802-6.622-24.541-24.022-36.525C102.586,338.023,87.757,330.312,78.324,334.97"/>
<path fill="#231F20" d="M76.169,387.671l6.465-3.287c0,0,1.541-0.521-2.905-0.702c-0.462-4.301-3.704-8.826-11.425-7.978
	c-7.706,0.808-4.816,9.362-4.406,12.8c0.408,3.44,0.142,13.104-5.374,12.674c-5.506-0.404-4.957-9.917-4.405-12.241
	c-2.342,1.232-7.026,4.277-7.448,4.531c-0.173,0.111,0.116,0.277,0.787,0.248c0.945-0.061,2.407-0.308,2.384,0.289
	c-0.015,0.421,3.019,9.248,8.94,8.836c5.93-0.411,9.781-3.463,9.654-10.741c-0.148-7.303-2.875-13.833,1.943-14.645
	C75.22,376.594,77.48,383.808,76.169,387.671"/>
<path fill="#231F20" d="M76.524,402.778c5.347-3.657,10.809-7.37,10.809-7.37l-5.064,12.187L76.524,402.778z M92.535,393.376
	l-3.29-2.525c0,0-22.209,14.712-24.495,16.244c-0.524,0.332-2.014,0.247-3.083-0.114c-0.789-0.264-0.789,0.156-0.461,0.446
	l5.347,4.968l0.452-0.387c-0.261-0.341-1.448-1.635-0.313-2.518c0.483-0.362,3.946-2.687,8.155-5.561l6.548,5.774l-4.083,9.807
	c-0.349,0.766-2.606-0.2-2.6-0.183l-0.231,0.536c1.716,1.642,5.837,5.208,6.199,5.506l0.44-0.544
	c-0.582-0.505-0.93-1.463,0.757-5.572C83.652,414.961,92.535,393.376,92.535,393.376"/>
<path fill="#231F20" d="M209.305,466.462c2.794-5.844,6.19-11.805,6.19-11.805l2.462,12.375L209.305,466.462z M218.075,449.814
	l-3.169-0.204c0,0-13.079,24.083-14.291,26.536c-0.274,0.57-1.622,1.236-2.706,1.458c-0.839,0.17-0.61,0.531-0.172,0.625
	l7.097,1.602l0.201-0.548c-0.399-0.162-2.08-0.691-1.521-2.02c0.216-0.567,2.483-4.282,4.675-8.879l10.064,0.915l1.901,10.068
	c0.2,0.82-2.163,1.498-2.163,1.498s-0.609,0.497,0.179,0.559c2.362,0.183,7.814,0.383,8.289,0.4v-0.72
	c-0.781-0.02-1.758,0.456-2.467-3.929C223.209,472.413,218.075,449.814,218.075,449.814"/>
<path fill="#231F20" d="M82.508,426.093l5.531,4.049l0.47-0.495c-0.36-0.549-1.679-1.634,1.105-5.047
	c2.788-3.428,14.213-19.164,14.213-19.164s9.737,5.852,5.065,13.473c-4.107,6.728-12.44,2.159-14.966-0.161
	c-1.524-1.396-1.524,0.645-1.524,0.645s3.3,2.906,6.213,3.914c2.936,1.023,10.54,2.549,14.211-3.289
	c3.687-5.836-0.497-11.795-6.459-15.217c-5.965-3.428-6.475-4.065-6.475-4.065s-0.75,0.152,0.028,0.885
	c0.773,0.762,1.087,1.634,0.359,2.638c-0.723,0.971-14.268,19.689-15.237,20.852C84.07,426.267,82.494,425.208,82.508,426.093"/>
<path fill="#231F20" d="M118.87,414.54c0,0,1.708,1.521,0,4.181c-1.703,2.636-13.098,20.018-13.098,20.018s-1.087,1.4-3.226,0.725
	c-0.306-0.114-0.867,0.189-0.157,0.61c1.679,0.973,4.854,3.033,6.14,3.887c0.945,0.604,0.363-0.626,0.363-0.626
	s-1.039-1.172,0.098-2.89c1.134-1.706,12.439-19.745,13.674-21.268c1.236-1.521,2.076-1.081,2.849-0.742
	c0.773,0.369,0.882-0.149,0.363-0.493l-6.943-4.078l-0.257,0.378"/>
<path fill="#231F20" d="M128.097,420.13c0,0,14.791,7.791,16.158,8.205l-2.645,5.391c-0.403,0.549-0.645-1.525-0.24-3.871
	c-3.867-2.492-9.646-5.137-9.646-5.137l-11.981,22.429c0,0,8.287,4.87,9.229,5.24c1.858,0.725,3.792-2.59,4.355-2.423l-2.887,5.541
	c-0.402,0.642-13.991-6.917-17.927-8.84c-0.966-0.482-0.476-1.046,1.368-0.729c1.859,0.321,1.859,0.408,3.292-1.929
	c1.449-2.32,10.774-19.624,11.333-20.578C129.075,422.465,126.577,419.486,128.097,420.13"/>
<path fill="#231F20" d="M124.734,435.399c0,0,4.732,2.48,6.029,3.221c1.275,0.716,2.569,0.234,3.289-0.968
	c0.724-1.207,0.959-0.481,0.076,1.204c-0.876,1.684-2.32,4.173-2.967,5.227c-0.638,1.044-1.375,0.789-0.638-0.802
	c0.724-1.609-0.647-2.34-2.965-3.544c-2.333-1.204-4.339-2.493-4.339-2.493L124.734,435.399z"/>
<path fill="#231F20" d="M249.201,451.896c0,0,16.688-1.021,18.064-1.399c0,0,0.582,5.3,0.53,5.998
	c-0.051,0.688-1.34-0.99-2.219-3.183c-4.079,0.103-10.918,0.605-10.918,0.605l-0.077,26.875c0,0,10.408-0.471,11.418-0.586
	c1.977-0.229,3.832-6.068,4.393-6.183l-1.142,8.866c0,0-17.029,0.728-21.288,0.844c-1.085,0.022-0.915-0.697,0.867-1.274
	c1.778-0.585,1.905-1.051,2.098-3.771c0.176-2.744,0.327-23.076,0.318-24.172C251.245,453.383,247.551,452.137,249.201,451.896"/>
<path fill="#231F20" d="M253.97,464.809c0,0,5.357-0.277,6.84-0.317c1.467-0.032,2.327-1.088,2.327-2.51
	c0.017-1.405,0.591-0.902,0.688,0.999c0.103,1.9,0.134,4.789,0.103,6.013c-0.017,1.231-0.762,1.396-0.956-0.349
	c-0.188-1.761-1.745-1.687-4.354-1.523c-2.63,0.129-5.016,0.057-5.016,0.057L253.97,464.809z"/>
<path fill="#231F20" d="M132.58,456.317c0,0,5.658,2.387,7.189,3.093c1.171,0.158,0.928-0.595-0.314-1.848
	c-0.303-0.29-0.225-1.421,0.747-3.124c0.881-1.584,7.689-15.651,7.689-15.651l4.008,25.609l4.906,1.599
	c0,0,8.866-22.77,9.698-24.908c0.833-2.146,2.047-1.702,3.049-1.485c1.003,0.226,1.085-0.692,0.092-1.043
	c-1.015-0.35-6.183-1.87-7.269-2.269c-1.085-0.396-0.788,0.695,0.142,1.131c0.901,0.454,1.031,1.132,0.638,2.576
	c-0.397,1.435-7.389,20.222-7.389,20.222l-4.429-27.61c0,0-3.747-2.319-4.616-2.835c-0.873-0.521-1.126,0.434-0.305,1.17
	c0.824,0.748,0.779,1.436,0.172,2.824c-0.61,1.392-10.406,20.525-10.978,21.44C135.038,456.113,132.038,455.109,132.58,456.317"/>
<path fill="#231F20" d="M172.619,439.929l-1.635,5.776c2.359-2.848,5.131-2.601,5.131-2.601s1.42,0.362,3.309,0.854
	c-1.106,3.864-6.474,22.446-7.143,24.405c-0.736,2.2-2.87,1.019-3.169,1.797c-0.147,0.391-0.043,0.526,0.828,0.738
	c1.063,0.24,4.918,1.659,5.708,1.894c0.795,0.213,0.889,0.318,1.002,0.042c0.408-1.159-1.83-1.172-1.1-3.381
	c0.273-0.885,6.348-21.549,7.223-24.567c1.775,0.52,3.505,1.066,4.59,1.473c1.073,0.42,2.364,2.036,2.539,4.726
	c0.562-2.28,1.788-5.766,1.788-5.766L172.619,439.929z"/>
<path fill="#231F20" d="M272.8,451.273l0.669,5.984c1.116-3.539,3.77-4.35,3.77-4.35s3.835-0.417,5.764-0.646
	c0.421,3.968,2.467,23.216,2.598,25.278c0.159,2.319-2.313,2.023-2.25,2.89c0.032,0.408,0.175,0.436,1.046,0.299
	c1.169-0.185,5.529-0.702,6.337-0.834c0.788-0.146,0.941-0.082,0.914-0.39c-0.126-1.226-2.453,0.111-2.619-2.191
	c-0.065-0.912-2.244-22.357-2.562-25.468c1.836-0.187,4.653-0.929,6.807-1.196c1.125-0.15,2.736,0.68,3.914,3.103
	c-0.336-2.326-0.531-6.039-0.531-6.039L272.8,451.273z"/>
<path fill="#231F20" d="M188.88,475.825l7.495,1.526c0,0,0.595-0.697-0.766-1.222c-0.192-0.073-0.817-0.888-0.497-2.266
	c0,0,4.214-22.225,4.52-23.805c0.322-1.573,1.078-1.46,1.89-1.387c0.824,0.061,1.583-1.009-0.062-1.325
	c-1.633-0.317-4.786-0.804-6.348-1.125c-1.122-0.232-1.329,0.773-0.767,0.999c0.767,0.32,1.949,1.265,1.765,2.318
	c-0.196,1.132-4.216,21.49-4.661,23.564c-0.305,1.446-1.013,2.085-2.141,1.809C188.501,474.752,188.225,475.668,188.88,475.825"/>
<path fill="#231F20" d="M238.124,467.16c0,1.294-1.055,2.353-2.356,2.353c-1.294,0-2.347-1.061-2.347-2.353
	c0-1.301,1.062-2.352,2.347-2.352C237.072,464.809,238.124,465.859,238.124,467.16"/>
<path fill="#231F20" d="M308.813,461.396c0,1.307-1.059,2.345-2.368,2.345c-1.29,0-2.342-1.046-2.342-2.345
	c0-1.292,1.052-2.352,2.342-2.352C307.755,459.045,308.813,460.104,308.813,461.396"/>
<path fill="#231F20" d="M309.815,444.601l9.247-2.028c0,0,1.059,0.317-0.583,1.077c-1.081,0.482-0.784,0.766-0.419,1.271
	l14.094,21.922l1.899-27.275c0,0-0.591-0.624-2.05-0.013l-0.355-0.653l5.516-2.591c0.522-0.23,1.506,0.125,0.316,0.896
	c-0.941,0.611-0.87,1.026-0.941,1.499l-2.545,30.491l-4.268,1.683l-16.419-25.337c0,0-1.307-0.2-2.556-0.023
	C309.497,445.705,309.372,444.773,309.815,444.601"/>
<path fill="#231F20" d="M341.524,436.285c0,0,9.864,22.922,10.198,23.848c0.349,0.914,0.394,1.871-0.577,2.621
	c-0.961,0.71-0.58,1.293,0.1,0.955c0.682-0.329,5.613-2.893,6.864-3.558c0.775-0.433,0.378-1.108-0.774-0.646
	c-1.161,0.49-1.793-0.729-2.312-2.019c-0.422-1.018-9.512-22.295-9.512-22.295c-0.238-0.625,0.175-1.334,1.09-2.033
	c0.683-0.494,0.67-1.415-0.26-0.955c-0.934,0.486-6.823,3.257-7.391,3.582c-0.568,0.332-0.334,0.8,0.747,0.507
	C340.763,435.979,341.359,436.051,341.524,436.285"/>
<path fill="#231F20" d="M369.868,436.604c-1.465,1.692-4.509,4.414-6.062,5.764l-6.828-13.123c1.479-0.739,2.87-1.478,3.707-1.958
	c2.788-1.617,4.393-1.121,7.095-0.219C370.492,427.964,371.886,434.31,369.868,436.604 M390.044,443.631
	c-2.146,0.563-3.892-0.625-7.592-3.544c-3.685-2.939-7.784-5.43-9.66-4.53c0.53-1.19,2.15-5.151,0.061-8.841
	c-2.086-3.685-7.732-4.23-10.295-2.933c-2.59,1.336-12.267,6.968-12.267,6.968c-0.659,1.283,0.863,1.009,2.977,0.155l13.326,25.434
	c-1.342,1.004-1.475,1.991-1.475,1.991l7.302-3.625c0,0-0.016-0.589-2.19,0.091l-5.559-10.694c0.687-0.825,1.813-2.161,3.296-3.508
	c4.245-3.437,9.608,2.008,13.507,4.718c3.896,2.727,4.447,2.231,6.045,0.914C389.144,444.876,392.205,443.077,390.044,443.631"/>
<path fill="#231F20" d="M400.191,436.025L386.3,413.652c1.595-1.08,3.077-2.076,4.063-2.744c2.947-1.978,6.002,1.075,6.002,1.075
	l-3.675-5.415L374.018,419.3l3.449,4.91c0,0-1.479-3.439,0.748-4.994c0.864-0.596,2.512-1.745,4.369-3.009l14.182,22.122
	c-2.621,2.021-0.979,2.147-0.979,2.147l6.473-4.482C402.252,435.995,402.556,434.731,400.191,436.025"/>
<path fill="#231F20" d="M394.209,405.365l7.069-5.457c0,0-1.196,2.479,0.696,4.966c1.886,2.494,10.554,13.93,13.153,15.823
	c2.577,1.885,10.131-0.8,9.043-11.049c2.383,1.697,0.298,11.945-5.388,14.633c-5.283,2.501-7.434-1.044-9.146-3.08
	c-6.663-7.961-9.13-11.161-11.342-13.827C396.404,405.076,394.209,405.365,394.209,405.365"/>
<path fill="#231F20" d="M407.738,393.52l6.276-5.372c0,0-1.398,1.699,1.391,5.184c2.784,3.476,10.843,14.222,13.036,16.315
	c2.188,2.079,4.874,0.875,5.087-0.308c0.186-1.191,0.593-0.402,0.094,1.393c-0.492,1.803-2.133,5.464-6.357,2.699
	c-2.891-1.899-3.279-2.585-4.183-3.583c-0.896-0.987-10.842-13.732-12.148-15.428C409.64,392.736,407.738,393.52,407.738,393.52"/>
<path fill="#231F20" d="M432.215,379.491l-2.193-8.733c0,0-0.728,0.479-0.728,1.456c0,0.957,0,2.307-1.089,2.42
	c-1.088,0.125-4.373-0.369-7.636,6.06c-1.104,2.156-0.735,10.916,4.485,9.822c5.214-1.084,15.532-5.343,19.044,1.204
	c3.513,6.557-4.487,11.162-10.552,8.013c-0.133,0,2.308,7.154,2.899,8.982c0.496-0.479,0.481-2.118,1.234-2.786
	c1.436-1.335,7.999-1.943,8.72-10.437c0.737-8.488-4.839-11.967-9.214-12.243c-5.814-0.369-14.312,5.334-15.038,1.343
	C421.486,380.988,428.454,377.307,432.215,379.491"/>
<path fill="#FFD300" d="M144.698,95.995c1.966,3.129,4.802,6.936,10.978,15.206l0.74,1.857c-5.98,1.117-10.368-0.17-15.093-1.961
	c-1.793,2.348-4.496,3.626-7.799,4.454v-10.02h-0.371c-2.446,1.449-5.411,3.577-9.47,2.391c1.679-3.375,2.135-7.728,1.315-7.58
	h-0.375c-3.675,0.817-6.265,2.396-10.108,1.799c-1.041-0.192-0.524-0.707-0.268-1.047c0.862-2.234,1.731-4.459,2.594-6.689
	c-3.808,0.625-7.127,1.236-10.8-0.373c0.858-0.859,2.149-1.73,3.016-2.591c0.708-0.936,1.236-1.977,1.86-2.963l-0.748-0.736
	c-3.206,0.914-6.643-0.788-9.388-1.809c0.916-1.151,1.54-1.96,3.079-3.023c1.397-0.594,2.659-1.546,2.228-2.224
	c-0.371-0.25-0.326-0.866-1.009-1.001c-3.729-0.454-7.611-0.686-10.118-2.972l1.102-1.22c3.164-2.638,3.76-2.38,8.532-2.224
	c0-0.125,0.638,0.015,0.05-0.908c-2.141-3.378-1.025-10.539-1.374-9.052c-0.888,4.71-8.148,5.328-7.945,3.653
	c0.129-8.185-3.027-5.501-3.622-7.481c-0.444-1.434,0.724-2.945,2.876-4.221c5.007-3.001,7.938,2.803,7.055-0.169
	c-0.5-0.62-0.566-1.449-1.496-1.852c-3.907-0.758-7.24-2.534-8.163-4.452c-0.729-1.822-0.49-4.511,0.908-6.674
	c0.461-0.546,0.952-0.823,1.694-1.106c4.163-0.609,8.064,7.353,8.531,5.56c-2.131-6.305-3.001-13.401,2.736-15.749
	c1.181-0.314,3.462-0.42,5.058,1.275c2.63,3.219-0.364,11.834,0,18.19c0.381,7.036,4.26,15.531,7.417,20.766
	c2.614,3.902,5.679,7.743,9.64,11.489c3.529,2.75,8.972,6.26,12.641,7.019c0.459,1.121,1.367,3.12,1.814,4.476
	C143.066,94.725,143.578,95.206,144.698,95.995"/>
<path fill="#FFD300" d="M148.328,59.428c1.056,0.498,2.128,1.006,2.988,1.596c-3.344,7.232-5.804,14.904,3.323,21.508
	c1.791,1.295,4.014,2.199,5.826,2.476c1.116,2.142,6.868,3.494,8.282,1.608c1.984-0.375,3.956-0.737,5.931-1.107
	c6.368-2.772,9.204-8.608,9.275-15.586c4.175-0.156,5.268-2.015,7.417-4.083l0.743,1.124c1.737,3.15,0.037,8.159-1.482,10.376
	c-1.113-1.1-2.221-2.224-3.333-3.332h-0.375c0.983,3.48,3.233,6.792,1.857,10.75l-0.749-0.373c-0.609-1.888-1.344-2.794-3.337-3.336
	v0.376c2.304,3.867,4.815,11.099,0,14.83h-0.363c-0.078-3.764-1.541-6.488-3.716-8.162l-0.745,0.743
	c1.031,2.363,3.873,8.496,2.093,11.545c-2.964-2.224-6.376-5.552-9.356-7.784l1.315,2.95c1.984,2.991,3.844,6.941-0.57,13.444
	c-2.445-7.276-12.117-12.611-13.966-16.802c-0.396,7.243,8.931,12.357,1.567,22.617l-0.75-0.373
	c-1.914-6.376-7.262-9.661-10.375-14.835c-2.207-3.646-3.247-6.256-1.971-12.149l-1.383,0.647c-0.736,1.241-1.687,3.23-2.424,4.459
	c-1.085-0.676-1.018-1.418-1.276-2.222c-1.071-4.537,1.984-6.275,3.077-10.252l0.262-1.258c-0.135,0-0.186-1.149-1.115,1.094
	c-0.873,1.688-1.02,2.347-2.625,3.242l0.021-2.109c0.845-1.629,1.427-3.169,1.531-5.737l-0.648,0.229l-0.556,1.15
	c-0.373,0.862-0.7,1.268-1.07,2.132c-0.491,1.12-1.004,1.264-1.129,0.978c-1.89-4.411,3.086-9.702,4.476-12.475
	c0.341-0.974-0.018-0.751-0.366-0.363c-1.732,1.85-3.383,3.981-5.107,5.839l-0.767-0.348c0-1.116,0-2.483,0.29-3.269
	c1.631-4.956,2.729-7.587,6.703-11.157c0.425-0.208-0.043-0.937-0.773-0.715c-1.859,0.625-4.66,2.195-6.516,2.814
	c0-0.617,0.38-2.305,0.75-3.176c1.106-1.622,2.069-3.269,3.551-4.459l1.249,0.085l1.568-2.729c-0.191-1.359,0.872-1.864,0.835-3.34
	c-2.572-5.091,1.789-11.634-0.312-18.3c3.44,1.296,6.845,4.699,7.168,5.063c0.104-3.143,1.51-7.722,2.787-9.638
	c0.729,0.624,1.598,1.545,2.277,2.895c0.875,1.369,1.731,2.722,2.608,4.083c0.59-1.289,0.943-3.551,1.547-4.836
	c1.008-2.178,2.45-4.291,3.454-6.469c0.996,2.585,2.29,6.3,3.269,8.903c1.418-0.499,0.41-1.047,1.114-2.163
	c0.625-2.975,1.615-4.333,2.348-6.313c1.338,2.292,2.41,6.956,3.091,10.506h0.375l0.751-0.371c0.986-2.273,1.916-3.708,2.903-5.06
	c3.517,3.634,2.224,9.842,3.086,10.01c1.361-0.05,3.024-3.142,4.146-4.134c1.97,2.171,0.849,7.248,2.036,8.409l1.169-0.687
	c2.497-2.192,4.683-3.717,7.982-2.227c-0.681,6.421-1.312,17.086-4.645,18.543c-0.61,0.615-2.467-0.991-3.336-1.11
	c3.688,6.578,1.105,14.279-6.303,14.464c-1.116-0.625-2.227-1.241-3.335-1.857c-0.627-0.24-0.991-0.119-0.745,0.752
	c4.802,8.101-2.788,16.715-10.02,17.063l-0.744-0.371c0.119-0.751,0.246-1.488,0.381-2.232c6.229-0.349,10.798-7.765,8.159-14.462
	h-0.362c-1.1,3.062-1.972,4.556-6.309,4.442c-1.116-0.867-2.228-1.726-3.336-2.591c0.357-5.19,3.872-4.553,6.666-7.054v-8.527
	c4.563,3.248,10.828,0.98,13.2-2.476c1.588-4.445,0.12-3.886-0.26-2.913c-2.016,4.861-10.531,6.63-12.193,2.787v-1.851l0.37-0.733
	c2.093-0.812,5.871-1.438,8.161-1.125c2.319,0.319,3.716-0.043,4.449,1.859c0.855-1.993,3.835-1.916,3.872-5.254
	c-1.546,3.138-5.871,2.164-9.586,2.247c-3.35,0.082-7.109,0.473-7.462-0.231c-0.25-1.122-0.453-2.945-0.703-4.052l-0.79,1.398
	c-0.283,5.495-0.373,10.538-0.872,15.861c-2.618-1.176-5.543-2.164-9.303-1.438v-0.364c1.731-5.567,3.47-11.132,5.192-16.692
	c-0.071-0.75-0.436-0.867-0.74-0.377c-0.625,1.703-0.887,2.915-2.224,3.334h-0.376c-2.363-0.123-3.813-2.887-5.806-3.886
	c-2.043-0.498-3.471-0.557-5.576-0.811c-0.987-0.618-1.845-2.965-2.711-4.325c-0.459-0.737-0.916-0.269-0.305,2.778
	c0.916,2.334,3.212,3.588,3.212,3.588s0.087,3.389,1.172,5.256c1.903,3.231,5.538,3.36,8.532,5.565
	c-0.725,2.126-2.526,5.211-1.859,7.41c1.632,3.44,4.721,5.141,4.083,10.02c-1.445,0.682-2.147,1.029-4.454,1.105
	c-2.751-0.984-4.777-1.888-5.937-4.454c-1.374-2.228-0.38-5.247,0.749-7.047l-0.749-0.732c-1.471,0.251-2.967,0.49-4.452,0.732
	c-2.63-0.543-4.765-3.224-5.509-6.946l-1.205-0.791c0,0-0.943,2.282,0.381,4.179C145.945,56.753,147.803,59.172,148.328,59.428"/>
<path fill="#FFE280" d="M116.929,34.22c2.631,0.135,2.757,0.943,4.348,1.962c2.976,3.687-3.319,7.335-5.861,18.623
	c-0.248,0.817-0.5,1.567-0.61,1.567l-0.582-1.269c-1.715-6.829-0.199-12.616,0-19.667C114.239,34.397,116.125,34.205,116.929,34.22"
	/>
<path fill="#FFE280" d="M116.929,34.22c2.631,0.135,2.757,0.943,4.348,1.962c2.976,3.687-3.319,7.335-5.861,18.623
	c-0.248,0.817-0.5,1.567-0.61,1.567l-0.582-1.269c-1.715-6.829-0.199-12.616,0-19.667C114.239,34.397,116.125,34.205,116.929,34.22"
	/>
<path fill="#835221" d="M273.35,14.295c4.039,2.533,0.307,10.64-0.755,13.347c4.673-1.289,8.02-4.169,14.101-5.183
	c8.601-1.455,16.5,3.233,25.225,1.106c8.203-1.999,16.017-9.928,25.584-5.185l-0.36,0.736c-9.401,1.662-14.751,10.68-23.017,14.092
	c-6.737,2.788-15.975,0.482-22.88,0.83l0.626,0.653c9.898,4.184,8.869,8.92,14.075,12.836l-1.824,0.894
	c-4.471,2.25-11.612,0.283-15.58-1.488c-4.568-2.837-9.14-5.69-13.715-8.53c-12.3-6.993-50.073-5.766-54.915,7.049
	c-3.255,7.95,6.318,12.083,18.73,11.012c9.657-0.842,20.031-3.055,23.946-2.857v-0.371l-0.75-1.106
	c-0.741-0.382-1.476-0.752-2.225-1.115l0.362-0.736c4.449-0.858,6.486,0.862,10.387,1.851c0.923-2.66,1.719-5.105,3.71-6.679
	c3.934,0.837,9.553,5.034,12.235,2.972c4.807,2.519,16.812,6.732,23.372-1.121c-2.251-0.843-6.604-4.432-7.056-7.099
	c4.384,0.908,8.957,4.927,14.097,5.249l0.741-1.116c0.13-1.473-0.38-3.175-0.247-4.662c0.147-0.811,0.843-1.144,2.104-0.157
	c3.831,2.423,10.191,5.473,15.955,4.447c0.314-3.13-2.942-4.781-2.676-8.326c2.439,1.282,12.964,6.654,14.541,5.369
	c-0.125-1.86-1.224-4.268-1.347-6.125l2.456,2.04c1.98,1.731,3.946,3.468,5.937,5.191h0.743c1.318-3.263,2.06-6.912,3.803-9.602
	c1.021-0.853,0.775,0.945,1.021,1.079c1.838,5,5.469,9.232,9.64,11.125c2.604-3.034-0.148-7.51,6.185-12.737l-0.995,3.468
	c-0.101,6.929,0.244,10.609,4.464,14.085c3.866-0.759,3.67-3.999,5.942-6.306c3.915-4.006,12.758-1.44,17.287-8.092
	c-3.766,11.572-10.97,9.891-13.913,14.587c-2.619,4.163-0.228,6.95-1.517,13.156c-0.669,3.093-2.742,4.743-4.093,7.055h0.379
	c4.438-2.03,6.763-6.212,10.75-8.156c5.403-2.659,14.785,1.286,22.584-2.163c-6.721,12.026-13.507,7.765-22.004,10.227
	c-3.798,1.093-5.362,3.347-8.377,4.913c-4.392,2.282-10.371,3.085-15.943,4.079c-12.47,2.223-30.427-1.864-39.224-2.17l0.275,1.8
	c6.677,8.136,14.391,12.956,27.442,14.836c17.209,2.475,37.705-17.232,49.695-1.119l-0.74,0.745c-0.871-0.25-1.729-0.491-2.6-0.745
	l-0.727,0.745c2.787,5.264,9.131,4.786,9.639,12.977l-0.38,0.75c-1.479-0.496-2.96-0.996-4.455-1.487l-0.37,0.365
	c1.566,2.957,4.702,6.294,4.809,9.276c-1.354-0.246-2.712-0.5-4.079-0.736c-0.129,1.354-0.243,2.711-0.369,4.079l2.015,0.317
	c0.508,0.333,1.916,0.425,2.893,2.922c-4.308,1.561-4.141,3.703-5.267,7.135c-3.106-0.213-3.353-1.255-4.812-2.957l-0.745,0.362
	c-0.902,4.56-2.062,7.778-4.831,10.393c-2.938-0.79-3.751-2.549-7.604-0.819c-0.728-0.434-0.553-1.411-0.553-1.781
	c0.438-2.63,1.468-3.752,2.454-5.716l0.522-0.958c0.418-0.544,0.516-1.276-0.379-0.742c-0.857,0.742-1.727,1.482-2.602,2.222
	c-1.2,3.865-2.056,7.169-7.042,7.425c-3.12-1.702-3.312-4.964-5.93-7.052l0.354-0.735c4.696-1.857,9.413-3.709,14.111-5.567
	c2.854-9.192,0.181-14.65-6.127-17.006c-13.684-5.084-51.15,5.476-68.427,1.062c-7.099-1.814-16.567-7.816-19.298-14.097
	c-0.807-1.89-1.088-5.268,0.064-7.915c0.368-0.827-0.806-0.701-1.173-0.61c-0.476,1.106-0.989,2.221-1.477,3.328l-10.753-2.222
	c-16.862-0.555-28.427,5.767-36.36,9.268c-15.911,7.06-26.027,19.28-57.928,14.902c-1.202-0.572-1.545-0.179-1.79-0.057
	c0.364,6.19,4.192,7.051,4.448,13.763c-2.32,3.952-5.741,5.582-9.26,7.372c-0.886,0.489-1.311-1.174-1.785-2.609l-0.802,1.125
	c0.518,5.15-2.75,7.193-6.305,9.275c-0.86,0.571-1.023,0.451-1.356-1.933c-1.234-1.978-1.86-2.392-3.093-4.377
	c-0.55-0.856-1.048-0.871-0.751,0.37c-0.344,3.957-2.326,5.671-5.19,7.055c-1.187,0.838-1.769,0.889-1.477-0.365
	c-0.169-3.269-1.755-5.576-4.466-6.314c-0.468,4.746-3.524,6.183-7.032,7.793c-1.233,0.654-1.343,0.334-1.116-1.112
	c0.594-2.439,0.25-6.207-2.168-6.943c-0.888,4.369-5.703,7.587-10.816,7.686c0.686-3.132,2.147-4.744,1.859-8.169l-0.75-1.524
	c-1.731,4.127-4.555,6.029-8.895,7.835c-0.974,0.235-2.392,0.824-2.766,0.452c0.659-0.272,1.248-3.59,2.573-4.917
	c1.362-1.731,2.548-2.334,3.894-4.062l-0.729-0.371c-2.853-0.129-5.702-0.246-8.533-0.377c0.425,3.536,0.043,5.683-2.233,7.424
	c-1.645-0.679-2.944-3.174-7.956-2.779c-1.47-1.465-0.135-1.345-0.305-3.693c0.99-1.731,1.709-1.808,2.7-3.545l-0.366-0.375
	c-2.853,1.821-14.149,11.849-18.548,4.454c-1.036-1.145-1.006-1.675-0.745-3.337c2.816-2.691,7.552-2.359,10.754-4.825l-0.375-0.731
	c-4.142,0.119-9.075,2.718-11.12,1.477c-1.836-0.965-2.318-2.724-3.709-4.079c-0.066-2.134,0.142-3.61,0.737-4.815l1.115-0.376
	c14.395,4.634,31.957,11.228,51.187,6.315c4.333-1.738,8.647-3.462,12.975-5.202l0.373,0.372c0.244,1.604,0.499,3.226,0.751,4.83
	l1.106-0.371c5.172-6.764,6.888-7.657,4.71-18.173l2.014,1.813c3.206,3.311,5.494,4.653,3.099,10.873
	c6.736-1.264,9.1-8.294,8.077-14.617c0.487,0.364,1.716,0.942,2.132,1.923c0.625,1.11,0.916,2.552,1.533,3.673l1.644-2.461
	c1.179-4.732,3.439-2.482,5.729-8.991c0.474-1.412,0.073-3.992,0.4-5.311c0.224-0.894,0.877-1.184,1.083-2.031
	c0.469-1.977,0.752-4.532,0.596-6.191c0.713-0.921,1.354-1.524,1.949-3.085c0.76-1.962,1.383-5.141,1.412-7.75
	c9.736,0.97,21.836,2.667,32.759,2.474c7.5-0.212,15.088-1.232,22.626-1.852c50.5-9.268,63.682-7.672,94.396-1.487
	c12.439,2.503,35.36,2.113,33.56-10.747c-1.72-12.31-29.313-12.003-42.836-8.906c-24.432,5.604-49.576,8.936-75.108,13.721
	c-11.575,2.171-28.266,4.889-39.305,0.364c-11.264-4.604-18.716-16.766-7.797-27.068C226.011,23.412,263.959,28.607,273.35,14.295"
	/>
<path fill="#835221" d="M290.775,88.169c1.141,0.006,2.464,0.349,3.428,1.086c-3.479,12.45,9.063,17.94,14.017,23.695
	c0.435,0.811,0.854,5.724-2.743,6.286c0.245,5.537-2.678,9.507-3.763,10.412c-3.478-2.286-5.415-4.667-7.971-6.664l-0.74,0.732
	c0.906,3.851-3.25,9.121-6.764,9.821c-0.933-3.354-1.222-6.727-2.884-9.173c-1.545-0.907-0.862,0.344-1.11,0.459
	c-0.41,5.746-2.938,8.844-6.473,11.403c-0.256-0.119-1.712,0.588-1.318-0.282c-1.046-4.646-4.022-7.357-7.417-9.638l-0.735,0.376
	c0.197,6.573-2.589,9.314-6.683,11.5l-1.095-0.751c-3.643-3.41-1.742-4.006-2.609-7.04c-1.603-0.135-2.676,0.381-4.81-0.377
	c-0.863,0.142-0.252,0.505-0.374,0.747c1.095,2.412,1.144,4.629,0.374,7.426l-1.486,1.106c-2.298-2.24-5.216-1.726-7.631-1.324
	c-2.504-3.806,0.065-6.621-0.894-7.951c-3.062,2.461-7.809,9.498-14.36,6.78c-0.867-0.618-1.315,0.25-2.695-1.956
	c0.092-3.071,0.929-3.165,2.222-4.824c2.712-1.233,5.444-2.474,8.163-3.708v-0.376c-1.435,0.055-5.597,0.508-9.329,2.834
	c-4.383-0.185-10.701-3.7-5.88-7.637c7.305-4.134,38.88,5.734,55.741-7.227c0.854-0.673,0.633-1.426,0.633-1.688
	c-9.633-6.241-12.499-14.77-3.709-24.103C272.233,88.11,280.436,86.406,290.775,88.169"/>
<path fill="#FFD300" d="M148.328,59.428c1.056,0.498,2.128,1.006,2.988,1.596c-3.344,7.232-5.804,14.904,3.323,21.508
	c1.791,1.295,4.014,2.199,5.826,2.476c1.116,2.142,6.868,3.494,8.282,1.608c1.984-0.375,3.956-0.737,5.931-1.107
	c6.368-2.772,9.204-8.608,9.275-15.586c4.175-0.156,5.268-2.015,7.417-4.083l0.743,1.124c1.737,3.15,0.037,8.159-1.482,10.376
	c-1.113-1.1-2.221-2.224-3.333-3.332h-0.375c0.983,3.48,3.233,6.792,1.857,10.75l-0.749-0.373c-0.609-1.888-1.344-2.794-3.337-3.336
	v0.376c2.304,3.867,4.815,11.099,0,14.83h-0.363c-0.078-3.764-1.541-6.488-3.716-8.162l-0.745,0.743
	c1.031,2.363,3.873,8.496,2.093,11.545c-2.964-2.224-6.376-5.552-9.356-7.784l1.315,2.95c1.984,2.991,3.844,6.941-0.57,13.444
	c-2.445-7.276-12.117-12.611-13.966-16.802c-0.396,7.243,8.931,12.357,1.567,22.617l-0.75-0.373
	c-1.914-6.376-7.262-9.661-10.375-14.835c-2.207-3.646-3.247-6.256-1.971-12.149l-1.383,0.647c-0.736,1.241-1.687,3.23-2.424,4.459
	c-1.085-0.676-1.018-1.418-1.276-2.222c-1.071-4.537,1.984-6.275,3.077-10.252l0.262-1.258c-0.135,0-0.186-1.149-1.115,1.094
	c-0.873,1.688-1.02,2.347-2.625,3.242l0.021-2.109c0.845-1.629,1.427-3.169,1.531-5.737l-0.648,0.229l-0.556,1.15
	c-0.373,0.862-0.7,1.268-1.07,2.132c-0.491,1.12-1.004,1.264-1.129,0.978c-1.89-4.411,3.086-9.702,4.476-12.475
	c0.341-0.974-0.018-0.751-0.366-0.363c-1.732,1.85-3.383,3.981-5.107,5.839l-0.767-0.348c0-1.116,0-2.483,0.29-3.269
	c1.631-4.956,2.729-7.587,6.703-11.157c0.425-0.208-0.043-0.937-0.773-0.715c-1.859,0.625-4.66,2.195-6.516,2.814
	c0-0.617,0.38-2.305,0.75-3.176c1.106-1.622,2.069-3.269,3.551-4.459l1.249,0.085l1.568-2.729c-0.191-1.359,0.872-1.864,0.835-3.34
	c-2.572-5.091,1.789-11.634-0.312-18.3c3.44,1.296,6.845,4.699,7.168,5.063c0.104-3.143,1.51-7.722,2.787-9.638
	c0.729,0.624,1.598,1.545,2.277,2.895c0.875,1.369,1.731,2.722,2.608,4.083c0.59-1.289,0.943-3.551,1.547-4.836
	c1.008-2.178,2.45-4.291,3.454-6.469c0.996,2.585,2.29,6.3,3.269,8.903c1.418-0.499,0.41-1.047,1.114-2.163
	c0.625-2.975,1.615-4.333,2.348-6.313c1.338,2.292,2.41,6.956,3.091,10.506h0.375l0.751-0.371c0.986-2.273,1.916-3.708,2.903-5.06
	c3.517,3.634,2.224,9.842,3.086,10.01c1.361-0.05,3.024-3.142,4.146-4.134c1.97,2.171,0.849,7.248,2.036,8.409l1.169-0.687
	c2.497-2.192,4.683-3.717,7.982-2.227c-0.681,6.421-1.312,17.086-4.645,18.543c-0.61,0.615-2.467-0.991-3.336-1.11
	c3.688,6.578,1.105,14.279-6.303,14.464c-1.116-0.625-2.227-1.241-3.335-1.857c-0.627-0.24-0.991-0.119-0.745,0.752
	c4.802,8.101-2.788,16.715-10.02,17.063l-0.744-0.371c0.119-0.751,0.246-1.488,0.381-2.232c6.229-0.349,10.798-7.765,8.159-14.462
	h-0.362c-1.1,3.062-1.972,4.556-6.309,4.442c-1.398-0.223-2.595-1.315-3.336-2.591c0.357-5.19,3.872-4.553,6.666-7.054v-8.527
	c4.563,3.248,10.828,0.98,13.2-2.476c1.588-4.445,0.12-3.886-0.26-2.913c-2.016,4.861-10.531,6.63-12.193,2.787v-1.851l0.37-0.733
	c2.093-0.812,5.871-1.438,8.161-1.125c2.319,0.319,3.716-0.043,4.449,1.859c0.855-1.993,3.835-1.916,3.872-5.254
	c-1.546,3.138-5.871,2.164-9.586,2.247c-3.35,0.082-7.109,0.473-7.462-0.231c-0.25-1.122-0.453-2.945-0.703-4.052l-0.79,1.398
	c-0.283,5.495-0.373,10.538-0.872,15.861c-2.618-1.176-5.543-2.164-9.303-1.438v-0.364c1.731-5.567,3.47-11.132,5.192-16.692
	c-0.071-0.75-0.436-0.867-0.74-0.377c-0.625,1.703-0.887,2.915-2.224,3.334h-0.376c-2.363-0.123-3.813-2.887-5.806-3.886
	c-2.043-0.498-3.471-0.557-5.576-0.811c-0.987-0.618-1.845-2.965-2.711-4.325c-0.459-0.737-0.916-0.269-0.305,2.778
	c0.916,2.334,3.212,3.588,3.212,3.588s0.087,3.389,1.172,5.256c1.903,3.231,5.538,3.36,8.532,5.565
	c-0.725,2.126-2.526,5.211-1.859,7.41c1.632,3.44,4.721,5.141,4.083,10.02c-1.445,0.682-2.147,1.029-4.454,1.105
	c-2.751-0.984-4.777-1.888-5.937-4.454c-1.374-2.228-0.38-5.247,0.749-7.047l-0.749-0.732c-1.471,0.251-2.967,0.49-4.452,0.732
	c-2.63-0.543-4.765-3.224-5.509-6.946l-1.205-0.791c0,0-0.943,2.282,0.381,4.179C145.945,56.753,147.803,59.172,148.328,59.428"/>
<path fill="#FFD300" d="M144.698,95.995c1.966,3.129,4.802,6.936,10.978,15.206l0.74,1.857c-5.98,1.117-10.368-0.17-15.093-1.961
	c-1.793,2.348-4.496,3.626-7.799,4.454v-10.02h-0.371c-2.446,1.449-5.411,3.577-9.47,2.391c1.679-3.375,2.135-7.728,1.315-7.58
	h-0.375c-3.675,0.817-6.265,2.396-10.108,1.799c-1.041-0.192-0.524-0.707-0.268-1.047c0.862-2.234,1.731-4.459,2.594-6.689
	c-3.808,0.625-7.127,1.236-10.8-0.373c0.858-0.859,2.149-1.73,3.016-2.591c0.708-0.936,1.236-1.977,1.86-2.963l-0.748-0.736
	c-3.206,0.914-6.643-0.788-9.388-1.809c0.916-1.151,1.54-1.96,3.079-3.023c1.397-0.594,2.659-1.546,2.228-2.224
	c-0.371-0.25-0.326-0.866-1.009-1.001c-3.729-0.454-7.611-0.686-10.118-2.972l1.102-1.22c3.164-2.638,3.76-2.38,8.532-2.224
	c0-0.125,0.638,0.015,0.05-0.908c-2.141-3.378-1.025-10.539-1.374-9.052c-0.888,4.71-8.148,5.328-7.945,3.653
	c0.129-8.185-3.027-5.501-3.622-7.481c-0.444-1.434,0.724-2.945,2.876-4.221c5.007-3.001,7.938,2.803,7.055-0.169
	c-0.5-0.62-0.566-1.449-1.496-1.852c-3.907-0.758-7.24-2.534-8.163-4.452c-0.729-1.822-0.49-4.511,0.908-6.674
	c0.461-0.546,0.952-0.823,1.694-1.106c4.163-0.609,8.064,7.353,8.531,5.56c-2.131-6.305-3.001-13.401,2.736-15.749
	c1.181-0.314,3.462-0.42,5.058,1.275c2.63,3.219-0.364,11.834,0,18.19c0.381,7.036,4.26,15.531,7.417,20.766
	c2.614,3.902,5.679,7.743,9.64,11.489c3.529,2.75,8.972,6.26,12.641,7.019c0.459,1.121,1.367,3.12,1.814,4.476
	C143.066,94.725,143.578,95.206,144.698,95.995"/>
<path fill="#FFD300" d="M273.35,14.295c4.039,2.533,0.307,10.64-0.755,13.347c4.673-1.289,8.02-4.169,14.101-5.183
	c8.601-1.455,16.5,3.233,25.225,1.106c8.203-1.999,16.017-9.928,25.584-5.185l-0.36,0.736c-9.401,1.662-14.751,10.68-23.017,14.092
	c-6.737,2.788-15.975,0.482-22.88,0.83l0.626,0.653c9.898,4.184,8.869,8.92,14.075,12.836l-1.824,0.894
	c-4.471,2.25-11.612,0.283-15.58-1.488c-4.568-2.837-9.14-5.69-13.715-8.53c-12.3-6.993-50.073-5.766-54.915,7.049
	c-3.255,7.95,6.318,12.083,18.73,11.012c9.657-0.842,20.031-3.055,23.946-2.857v-0.371l-0.75-1.106
	c-0.741-0.382-1.476-0.752-2.225-1.115l0.362-0.736c4.449-0.858,6.486,0.862,10.387,1.851c0.923-2.66,1.719-5.105,3.71-6.679
	c3.934,0.837,9.553,5.034,12.235,2.972c4.807,2.519,16.812,6.732,23.372-1.121c-2.251-0.843-6.604-4.432-7.056-7.099
	c4.384,0.908,8.957,4.927,14.097,5.249l0.741-1.116c0.13-1.473-0.38-3.175-0.247-4.662c0.147-0.811,0.843-1.144,2.104-0.157
	c3.831,2.423,10.191,5.473,15.955,4.447c0.314-3.13-2.942-4.781-2.676-8.326c2.439,1.282,12.964,6.654,14.541,5.369
	c-0.125-1.86-1.224-4.268-1.347-6.125l2.456,2.04c1.98,1.731,3.946,3.468,5.937,5.191h0.743c1.318-3.263,2.06-6.912,3.803-9.602
	c1.021-0.853,0.775,0.945,1.021,1.079c1.838,5,5.469,9.232,9.64,11.125c2.604-3.034-0.148-7.51,6.185-12.737l-0.995,3.468
	c-0.101,6.929,0.244,10.609,4.464,14.085c3.866-0.759,3.67-3.999,5.942-6.306c3.915-4.006,12.758-1.44,17.287-8.092
	c-3.766,11.572-10.97,9.891-13.913,14.587c-2.619,4.163-0.228,6.95-1.517,13.156c-0.669,3.093-2.742,4.743-4.093,7.055h0.379
	c4.438-2.03,6.763-6.212,10.75-8.156c5.403-2.659,14.785,1.286,22.584-2.163c-6.721,12.026-13.507,7.765-22.004,10.227
	c-3.798,1.093-5.362,3.347-8.377,4.913c-4.392,2.282-10.371,3.085-15.943,4.079c-12.47,2.223-30.427-1.864-39.224-2.17l0.275,1.8
	c6.677,8.136,14.391,12.956,27.442,14.836c17.209,2.475,37.705-17.232,49.695-1.119l-0.74,0.745c-0.871-0.25-1.729-0.491-2.6-0.745
	l-0.727,0.745c2.787,5.264,9.131,4.786,9.639,12.977l-0.38,0.75c-1.479-0.496-2.96-0.996-4.455-1.487l-0.37,0.365
	c1.566,2.957,4.702,6.294,4.809,9.276c-1.354-0.246-2.712-0.5-4.079-0.736c-0.129,1.354-0.243,2.711-0.369,4.079l2.015,0.317
	c0.508,0.333,1.916,0.425,2.893,2.922c-4.308,1.561-4.141,3.703-5.267,7.135c-3.106-0.213-3.353-1.255-4.812-2.957l-0.745,0.362
	c-0.902,4.56-2.062,7.778-4.831,10.393c-2.938-0.79-3.751-2.549-7.604-0.819c-0.728-0.434-0.553-1.411-0.553-1.781
	c0.438-2.63,1.468-3.752,2.454-5.716l0.522-0.958c0.418-0.544,0.516-1.276-0.379-0.742c-0.857,0.742-1.727,1.482-2.602,2.222
	c-1.2,3.865-2.056,7.169-7.042,7.425c-3.12-1.702-3.312-4.964-5.93-7.052l0.354-0.735c4.696-1.857,9.413-3.709,14.111-5.567
	c2.854-9.192,0.181-14.65-6.127-17.006c-13.684-5.084-51.15,5.476-68.427,1.062c-7.099-1.814-16.567-7.816-19.298-14.097
	c-0.807-1.89-1.088-5.268,0.064-7.915c0.368-0.827-0.806-0.701-1.173-0.61c-0.476,1.106-0.989,2.221-1.477,3.328l-10.753-2.222
	c-16.862-0.555-28.427,5.767-36.36,9.268c-15.911,7.06-26.027,19.28-57.928,14.902c-1.202-0.572-1.545-0.179-1.79-0.057
	c0.364,6.19,4.192,7.051,4.448,13.763c-2.32,3.952-5.741,5.582-9.26,7.372c-0.886,0.489-1.311-1.174-1.785-2.609l-0.802,1.125
	c0.518,5.15-2.75,7.193-6.305,9.275c-0.86,0.571-1.023,0.451-1.356-1.933c-1.234-1.978-1.86-2.392-3.093-4.377
	c-0.55-0.856-1.048-0.871-0.751,0.37c-0.344,3.957-2.326,5.671-5.19,7.055c-1.187,0.838-1.769,0.889-1.477-0.365
	c-0.169-3.269-1.755-5.576-4.466-6.314c-0.468,4.746-3.524,6.183-7.032,7.793c-1.233,0.654-1.343,0.334-1.116-1.112
	c0.594-2.439,0.25-6.207-2.168-6.943c-0.888,4.369-5.703,7.587-10.816,7.686c0.686-3.132,2.147-4.744,1.859-8.169l-0.75-1.524
	c-1.731,4.127-4.555,6.029-8.895,7.835c-0.974,0.235-2.392,0.824-2.766,0.452c0.659-0.272,1.248-3.59,2.573-4.917
	c1.362-1.731,2.548-2.334,3.894-4.062l-0.729-0.371c-2.853-0.129-5.702-0.246-8.533-0.377c0.425,3.536,0.043,5.683-2.233,7.424
	c-1.645-0.679-2.944-3.174-7.956-2.779c-1.47-1.465-0.135-1.345-0.305-3.693c0.99-1.731,1.709-1.808,2.7-3.545l-0.366-0.375
	c-2.853,1.821-14.149,11.849-18.548,4.454c-1.036-1.145-1.006-1.675-0.745-3.337c2.816-2.691,7.552-2.359,10.754-4.825l-0.375-0.731
	c-4.142,0.119-9.075,2.718-11.12,1.477c-1.836-0.965-2.318-2.724-3.709-4.079c-0.066-2.134,0.142-3.61,0.737-4.815l1.115-0.376
	c14.395,4.634,31.957,11.228,51.187,6.315c4.333-1.738,8.647-3.462,12.975-5.202l0.373,0.372c0.244,1.604,0.499,3.226,0.751,4.83
	l1.106-0.371c5.172-6.764,6.888-7.657,4.71-18.173l2.014,1.813c3.206,3.311,5.494,4.653,3.099,10.873
	c6.736-1.264,9.1-8.294,8.077-14.617c0.487,0.364,1.716,0.942,2.132,1.923c0.625,1.11,0.916,2.552,1.533,3.673l1.644-2.461
	c1.179-4.732,3.439-2.482,5.729-8.991c0.474-1.412,0.073-3.992,0.4-5.311c0.224-0.894,0.877-1.184,1.083-2.031
	c0.469-1.977,0.752-4.532,0.596-6.191c0.713-0.921,1.354-1.524,1.949-3.085c0.76-1.962,1.383-5.141,1.412-7.75
	c9.736,0.97,21.836,2.667,32.759,2.474c7.5-0.212,15.088-1.232,22.626-1.852c50.5-9.268,63.682-7.672,94.396-1.487
	c12.439,2.503,35.36,2.113,33.56-10.747c-1.72-12.31-29.313-12.003-42.836-8.906c-24.432,5.604-49.576,8.936-75.108,13.721
	c-11.575,2.171-28.266,4.889-39.305,0.364c-11.264-4.604-18.716-16.766-7.797-27.068C226.011,23.412,263.959,28.607,273.35,14.295"
	/>
<path fill="#FFD300" d="M290.775,88.169c1.141,0.006,2.464,0.349,3.428,1.086c-3.479,12.45,9.063,17.94,14.017,23.695
	c0.435,0.811,0.854,5.724-2.743,6.286c0.245,5.537-2.678,9.507-3.763,10.412c-3.478-2.286-5.415-4.667-7.971-6.664l-0.74,0.732
	c0.906,3.851-3.25,9.121-6.764,9.821c-0.933-3.354-1.222-6.727-2.884-9.173c-1.545-0.907-0.862,0.344-1.11,0.459
	c-0.41,5.746-2.938,8.844-6.473,11.403c-0.256-0.119-1.712,0.588-1.318-0.282c-1.046-4.646-4.022-7.357-7.417-9.638l-0.735,0.376
	c0.197,6.573-2.589,9.314-6.683,11.5l-1.095-0.751c-3.643-3.41-1.742-4.006-2.609-7.04c-1.603-0.135-2.676,0.381-4.81-0.377
	c-0.863,0.142-0.252,0.505-0.374,0.747c1.095,2.412,1.144,4.629,0.374,7.426l-1.486,1.106c-2.298-2.24-5.216-1.726-7.631-1.324
	c-2.504-3.806,0.065-6.621-0.894-7.951c-3.062,2.461-7.809,9.498-14.36,6.78c-0.867-0.618-1.315,0.25-2.695-1.956
	c0.092-3.071,0.929-3.165,2.222-4.824c2.712-1.233,5.444-2.474,8.163-3.708v-0.376c-1.435,0.055-5.597,0.508-9.329,2.834
	c-4.383-0.185-10.701-3.7-5.88-7.637c7.305-4.134,38.88,5.734,55.741-7.227c0.854-0.673,0.633-1.426,0.633-1.688
	c-9.633-6.241-12.499-14.77-3.709-24.103C272.233,88.11,280.436,86.406,290.775,88.169"/>
<path fill="#231F20" d="M177.658,47.74c0,0-0.871,2.718,1.232,3.573c2.112,0.875,3.584,0.074,4.266-1.601
	c0.683-1.662,0.425-3.653-1.799-3.455C179.143,46.437,178.399,46.563,177.658,47.74"/>
<path fill="#231F20" d="M163.625,44.585c0,0-0.794,3.836-3.948,2.342c-3.173-1.486-1.677-4.504-1.248-5.675
	C158.86,40.076,163.625,43.656,163.625,44.585"/>
<path fill="#966A3D" d="M390.015,91.885c0,0,3.253-1.062,4.354-0.299c1.11,0.758,2.497,2.037,2.497,3.122
	c0,1.079,0.84-0.758,0.999-1.716c0.147-0.958-1.93-3.935-4.473-3.448C390.883,90.021,389.258,91.084,390.015,91.885"/>
<path fill="#CE8A2D" d="M141.145,94.301c0,0-2.707-1.937-4.729-3.866c-2.029-1.923-1.738-1.149-3.193-1.73
	c-1.444-0.582,0.578,1.636,0.676,3.659c0.104,2.035-1.547,5.69-3.95,6.857c-1.358,0.482-4.823-4.629-6.278-3.765
	c-1.441,0.867,7.326,9.752,15.539,12.831C147.422,111.38,144.139,96.514,141.145,94.301"/>
<path fill="#926227" d="M140.669,93.424c0,0,2.979,0.679,4.918,2.805c1.933,2.123,5.694,12.545,5.694,12.545
	s-1.639,5.887-15.333-2.03c-1.931-1.726,3.475-0.872,4.525-2.691c1.069-1.836,3.09-5.122,0.289-9.18
	C139.7,93.719,140.669,93.424,140.669,93.424"/>
<path fill="#754C1F" d="M145.298,96.137c0,0,1.449,5.495,2.897,8.495c1.445,2.986-2.897,3.375-4.823,3.375
	c-1.924,0,0.19,2.123,2.22,2.995c2.025,0.862,7.629,2.312,9.458,0.098C156.868,108.875,145.298,96.137,145.298,96.137"/>
<path fill="#FFE280" d="M114.699,36.456c0,0,3.255,0.222,2.867,1.703c-0.377,1.493-1.909,10.243-1.216,12.2
	c0.682,1.977,5.893-8.171,6.214-10.774c0.317-2.594-1.497-6.305-5.048-6.094C113.948,33.698,112.885,36.188,114.699,36.456"/>
<path fill="#FFE280" d="M111.986,43.31c0,0-1.961,3.023-2.497-0.431c-0.521-3.441,0.742-9.611-0.902-9.438
	c-1.64,0.148-3.016-0.371-3.075,3.283c-0.054,3.659,0.319,9.508-1.962,9.133c-2.282-0.37-2.972-5.157-2.496-8.07
	c0.476-2.921,0.839-7.959,6.638-7.855C113.472,30.042,112.885,38.203,111.986,43.31"/>
<path fill="#FFE280" d="M101.906,46.92c0,0-1.008,5.203-3.284,1.162c-2.29-4.029-3.396-5.083-3.561-2.701
	c-0.156,2.39,0.198,4.14,0.198,4.885c0,0.735-3.758,1.008-4.079-1.22c-0.319-2.243-0.113-5.893,1.22-7.544
	C93.722,39.854,99.619,39.646,101.906,46.92"/>
<path fill="#FFE280" d="M102.062,58.328c0,0-3.186-3.716-6.523-1.331c-3.343,2.403,0.523,2.766,1.382,5.141
	c0.851,2.396,2.39,2.197,2.335,0.538c-0.06-1.645-3.194-2.859-2.236-3.871C97.984,57.792,102.33,61.622,102.062,58.328"/>
<path fill="#FFE280" d="M104.458,74.413c0,0-3.993-1.438-5.949-0.38c-1.965,1.07-2.325,2.29-0.788,2.559
	c1.541,0.261,2.543-1.072,4.601-0.703C104.404,76.271,106.152,75.682,104.458,74.413"/>
<path fill="#FFE280" d="M107.855,81.628c0,0-3.452,1.22-5.254,2.647c-1.814,1.442-0.425,2.132,2.376,2.974
	c2.825,0.854,0.489-1.211,2.395-3.013C109.289,82.418,108.691,81.16,107.855,81.628"/>
<path fill="#FFE280" d="M113.315,90.646c-1.256-0.441-5.36,2.014-6.361,3.192c-1.019,1.16,1.329,0.573,3.822-0.432
	C113.265,92.396,115.286,91.341,113.315,90.646"/>
<path fill="#FFE280" d="M119.84,97.66c0,0-1.901-0.646-3.18,1.428c-1.28,2.064-1.857,2.715-1.019,3.181
	c0.854,0.49,2.296-0.148,2.766-1.54C118.749,99.773,121.06,98.448,119.84,97.66"/>
<path fill="#FFE280" d="M127.912,102.535c0,0-1.805,0.156-3.078,2.549c-1.27,2.384-0.317,2.974,1.118,2.384
	C127.386,106.893,129.712,102.165,127.912,102.535"/>
<path fill="#FFE280" d="M135.448,109.491c0,0,0.376,0.751-1.325,1.97c-1.704,1.207,0.708,0.866,2.489-0.81
	C137.522,109.811,136.187,108.319,135.448,109.491"/>
<path fill="#FFE280" d="M143.187,54.655c0,0-3.455,1.999-4.489,4.461c-1.043,2.453,2.905-0.702,4.063-1.502
	C143.91,56.805,144.726,53.889,143.187,54.655"/>
<path fill="#FFE280" d="M142.684,63.292c0,0-2.646,3.484-2.914,6.214c-0.261,2.728,0.638,1.234,2.304-1.455
	c1.646-2.687,1.602-2.453,2.102-3.496C144.683,63.526,143.805,61.835,142.684,63.292"/>
<path fill="#FFE280" d="M142.57,76.717c0,0,0.661-3.333,1.956-4.519c1.307-1.198,1.583,0.986,0.731,3.133
	c-0.83,2.156-1.343,4.491-2.258,5.255C142.067,81.362,142.417,77.763,142.57,76.717"/>
<path fill="#FFE280" d="M146.138,80.024c0,0,1.388-1.27,1.65-0.081c0.266,1.187-1.453,3.988-1.92,5.952
	c-0.459,1.945-2.071,4.1-2.637,1.188c-0.583-2.919,0.489-2.766,1.19-4.077C145.097,81.711,145.25,80.753,146.138,80.024"/>
<path fill="#FFE280" d="M147.363,88.921c0,0,1.355-2.337,2.803-1.311c1.456,1.047,0.229,3.454,2.682,8.184
	c2.453,4.717,6.639,10.739,7.94,12.303c1.305,1.58,1.694,1.46,1.077,3.921c-0.609,2.45-1.688,2.689-3.07,0.54
	c-1.39-2.147-8.169-10.277-9.671-12.352C147.633,98.13,145.409,91.193,147.363,88.921"/>
<path fill="#FFE280" d="M163.372,95.215c0,0,5.935,4.876,7.729,7.908c1.791,3.027,2.538,4.452,3.467,3.218
	c0.921-1.233-1.368-4.399-4.46-7.358C167.028,96.017,162.442,92.434,163.372,95.215"/>
<path fill="#FFE280" d="M175.064,91.868c0,0,3.836,2.849,4.754,4.581c0.931,1.738,1.679-0.254,0.5-1.732
	C179.143,93.245,174.255,89.538,175.064,91.868"/>
<path fill="#FFE280" d="M187.112,85.263c0,0-1.481-1.987-3.154-2.297c-1.672-0.305-0.313,0.997,0.561,2.356
	c0.86,1.353,1.106,3.092,0.985,4.758c-0.127,1.674,1.418,2.974,2.29,0.306C188.665,87.74,187.112,85.263,187.112,85.263"/>
<path fill="#FFE280" d="M187.667,76.173c0,0-1.149-1.859-2.781,0.431c-0.312,0.44,1.792,2.973,2.165,5.196
	c0.38,2.221,2.224,0.93,2.347-1.36C189.524,78.15,187.667,76.173,187.667,76.173"/>
<path fill="#FFE280" d="M189.399,68.635c0,0,0.495,1.676-0.059,3.524c-0.566,1.859,1.846,3.396,2.103,0.745
	C191.688,70.236,191.376,68.45,189.399,68.635"/>
<path fill="#FFE280" d="M187.354,53.796c0,0,2.043,4.314,0.566,7.043c-1.497,2.712,1.03,1.737,1.782,0.127
	C192.12,55.832,186.427,52.561,187.354,53.796"/>
<path fill="#FFE280" d="M158.236,58.833c0,0-2.555,1.044-2.356,4.169c0.178,3.121,2.461,5.582,5.396,5.496
	c2.936-0.099,2.362-1.616,0.668-1.899c-1.702-0.279-3.796-1.994-3.508-4.541C158.712,59.497,159.371,58.356,158.236,58.833"/>
<path fill="#FFE280" d="M152.372,56.469c0,0-5.958,0-6.241-4.735c-0.284-4.731,1.32-4.441,2.072-5.104
	c0.768-0.669,1.994,0.565,0.856,1.985c-1.127,1.417,0.291,5.579,2.266,5.863C153.321,54.77,154.735,55.995,152.372,56.469"/>
<path fill="#FFE280" d="M145.945,43.31c0,0,2.739,3.596,3.031,1.134c0.275-2.46-1.999-3.78-1.045-7.097
	c0.943-3.312,0.278-5.385,1.603-3.975c1.328,1.419,3.022,0.563,2.276-1.323c-0.751-1.895-5.489-6.435-6.155-3.877
	C145.002,30.727,144.041,41.323,145.945,43.31"/>
<path fill="#FFE280" d="M153.891,31.104c0,0,2.079,3.122,2.837,0.568c0.76-2.559,1.607-2.746,2.46-1.803
	c0.85,0.952-1.405-6.524-3.219-6.049C154.174,24.289,153.891,31.104,153.891,31.104"/>
<path fill="#FFE280" d="M162.778,29.595c0,0,1.7-4.073,2.282-3.032c0.565,1.042,1.419,0.751,0.943-1.792
	c-0.475-2.562-0.475-5.021-1.702-3.41C163.067,22.96,161.178,29.775,162.778,29.595"/>
<path fill="#FFE280" d="M170.642,28.17c0,0,1.517-1.13,2.083-0.378c0.562,0.759,1.504,1.321,1.504-0.944
	c0-2.269-1.41-6.057-2.935-3.034C169.788,26.848,170.077,26.935,170.642,28.17"/>
<path fill="#FFE280" d="M176.972,29.783c0,0,2.084,0.279,2.847-0.283c0.758-0.574,0.273,1.135,0.758,1.797
	c0.475,0.664,1.899-2.936,0.664-5.974C180.015,22.305,176.885,27.784,176.972,29.783"/>
<path fill="#FFE280" d="M183.795,34.799c0,0,0.761,0.943,1.703,1.7c0.943,0.76,2.362,3.312,2.653,0.283
	c0.283-3.033-2.468-5.963-3.032-4.638C184.553,33.476,183.795,34.799,183.795,34.799"/>
<path fill="#FFE280" d="M190.233,39.814c0,0,3.226-3.03,5.113-2.363c1.889,0.662,4.54-0.098,3.312-1.617
	c-1.226-1.511-6.25-1.418-7.2-0.188C190.516,36.869,189.569,39.155,190.233,39.814"/>
<path fill="#FFE280" d="M167.512,43.31c0,0,2.085-3.589,2.945-0.944c0.838,2.645-1.249,4.921-2.192,8.425
	c-0.944,3.502-2.549,3.121-0.842,3.589c1.702,0.486,2.833,1.608,0.275,1.432c-2.548-0.203-5.192,1.973-3.959-0.768
	C164.953,52.302,165.526,45.388,167.512,43.31"/>
<path fill="#FFE280" d="M301.571,97.739c0,0-6.81-12.534-2.062-15.592c1.697-1.086,0.593,5.611,5.12,11.818
	c4.489,6.213,13.508,11.444,25.084,11.333c11.567-0.135,13.259,0.96,5.231,2.304C326.901,108.944,310.211,112.475,301.571,97.739"/>
<path fill="#FFE280" d="M333.185,81.426c0,0-4.95-4.82-8.782-5.438c-3.839-0.62-2.958,1.596,0.135,3.219
	c3.094,1.603,13.471,13.348,25.588,15.82c12.114,2.469,32.123-2.473,39.188-4.579c7.04-2.099,7.417,0,8.653,2.232
	c1.229,2.223,2.352-0.125,0.859-4.585c-1.488-4.443-6.42-3.819-19.775,0.615c-13.355,4.459-20.632,4.459-30.05,0.876
	C339.614,85.999,339.866,84.149,333.185,81.426"/>
<path fill="#FFE280" d="M402.426,87.858c0,0,2.832-1.367,4.948,2.718c0.739,1.232,0.23-0.119-2.856,0
	C401.44,90.703,400.947,88.343,402.426,87.858"/>
<path fill="#FFE280" d="M404.894,99.107c0,0,4.079,2.224,5.437,3.708c1.354,1.48,2.468-0.617-0.498-3.219
	C406.867,97.008,404.283,97.378,404.894,99.107"/>
<path fill="#FFE280" d="M407.608,108.875c0,0,3.226,1.234,4.703,3.583c1.479,2.348,3.341,2.724,1.729-0.246
	c-0.812-1.502-3.062-3.894-4.776-4.972C407.608,106.19,406.212,108.362,407.608,108.875"/>
<path fill="#FFE280" d="M408.854,116.041c0,0-2.966,0.989-0.869,2.847c2.105,1.851,4.195,1.362,3.095,3.334
	c-1.11,1.993,2.604-0.363,3.216-0.741c0.625-0.354-0.997-2.473-2.344-3.707C410.585,116.531,410.206,115.297,408.854,116.041"/>
<path fill="#FFE280" d="M392.28,116.412c0,0,1.728-4.561,2.48-0.372c0.741,4.215,0.116,7.047-4.457,10.391
	c-4.571,3.343-8.162,4.073-10.867,3.709c-2.73-0.366-4.715-1.117,0-2.104c4.673-0.979,7.885-1.73,9.874-4.208
	C391.291,121.355,392.788,120.256,392.28,116.412"/>
<path fill="#FFE280" d="M382.018,124.206c0,0-3.946,0.747-6.185,0.129c-2.233-0.625-3.832,0.112-3.947,1.852
	c-0.145,1.731-1.478,1.487-1.855-0.617c-0.365-2.112,0.243-5.204,2.103-5.446C373.992,119.885,378.812,121.355,382.018,124.206"/>
<path fill="#FFE280" d="M391.915,127.978c0,0,1.082-1.623,2.527-2.341c1.437-0.723,1.857,0.18,0.897,2.158
	c-0.972,1.986-3.26,3.551-2.47,5.288c0.771,1.746,1.322,1.384-0.67,2.405c-1.985,1.013-3.847,0.779-2.698-1.803
	C390.652,131.106,391.915,127.978,391.915,127.978"/>
<path fill="#FFE280" d="M199.404,74.309c0,0,11.914,4.533,35.246,1.596c23.329-2.957,40.02-6.753,65.801-6.873
	c25.781-0.135,50.835,6.873,60.763,6.26c9.958-0.609,1.889-4.061-9.969-5.359c-11.875-1.311-50.446-9.275-84.384-2.409
	c-33.939,6.862-55.091,6.12-63.437,5.189C195.076,71.784,199.404,74.309,199.404,74.309"/>
<path fill="#FFE280" d="M219.644,49.875c0,0-0.76,7.762,12.471,9.737c13.231,1.977,22.507-0.767,25.089-1.531
	c2.595-0.746,2.125-2.577-5.168-2.577c-7.295,0-15.352,2.733-22.056-0.148C223.283,52.463,219.644,49.875,219.644,49.875"/>
<path fill="#FFE280" d="M210.992,46.409c0,0,2.453-8.468,14.254-12.479c11.818-4.008,37.007-6.243,43.894-9.58
	c6.911-3.343,5.124,0.67,5.124,0.67s1.119,2.668,6.019,2.009c4.905-0.674,10.923-2.453,24.511-0.447
	c13.591,2.006,13.591-1.788,20.495-3.348c6.929-1.56,16.275-5.114,9.595-5.343c-6.685-0.233-17.168,5.567-29.865,4.221
	c-12.702-1.332-23.176-0.659-29.185,2.461c-6.022,3.115,1.327-1.561,0.435-6.682c-0.885-5.129-2.004,3.335-20.28,6.235
	C237.722,27.027,210.312,30.815,210.992,46.409"/>
<path fill="#FFE280" d="M261.621,50.458c0,0,2.004,3.219,0.937,4.415c-1.078,1.209,1.474,0.944,1.474-2.943
	C264.03,48.053,262.291,49.662,261.621,50.458"/>
<path fill="#FFE280" d="M272.872,51.535c0,0,2.132-1.873,4.542-4.282c2.427-2.414-1.333-3.893-2.539-2.155
	c-1.206,1.748,0.799,3.496-1.332,4.825C271.389,51.267,272.872,51.535,272.872,51.535"/>
<path fill="#FFE280" d="M305.14,40.425l1.067,4.274c0,0-5.216-0.843-5.216-5.745C300.988,36.672,305.14,40.425,305.14,40.425"/>
<path fill="#FFE280" d="M320.128,45.642c0,0,1.064-4.156,1.604-5.223c0.534-1.072-4.414-3.344-4.549-2.009
	C317.05,39.749,318.921,45.912,320.128,45.642"/>
<path fill="#FFE280" d="M335.26,43.233c0,0,2.135-3.085,2.676-5.095c0.533-2.009-7.1-4.275-5.628-1.735
	C333.783,38.939,333.649,42.691,335.26,43.233"/>
<path fill="#FFE280" d="M345.697,39.346c0,0,4.021,5.627,3.616,2.276c-0.409-3.354,0.794-5.754-1.6-7.09
	C345.299,33.187,345.697,39.346,345.697,39.346"/>
<path fill="#FFE280" d="M360.157,32.252c0,0-3.475,2.674-2.948,6.828c0.54,4.15,2.813,4.276,3.08,0
	C360.563,34.793,360.157,32.252,360.157,32.252"/>
<path fill="#FFE280" d="M372.351,34.799c0,0-2.408,5.751-2.555,8.702c-0.133,2.935,2.816,4.549,3.612-0.271
	c0.801-4.83,1.873-7.765,2.557-10.304C376.633,30.367,372.351,34.799,372.351,34.799"/>
<path fill="#FFE280" d="M381.712,48.184c0,0-1.081-4.412,6.155-7.499c3.746-1.596,10.044-2.269,10.044-2.269s2.28,1.865-8.562,5.227
	c-4.151,1.456-6.559,7.082-6.838,10.3C382.248,57.153,380.51,51.529,381.712,48.184"/>
<path fill="#FFE280" d="M389.209,69.476c0,0,2.404-3.477,12.188-3.477c9.769,0,11.106-2.559,13.119-4.825
	c2.015-2.271-0.404-0.535-4.149,0.937c-3.744,1.475-8.043-0.266-14.863,1.743C388.68,65.854,389.209,69.476,389.209,69.476"/>
<path fill="#FFE280" d="M270.822,88.747c0,0-5.457,5.436-4.495,11.701c0.543,3.589,3.948,8.561,5.733,9.208
	c1.758,0.643,3.171-0.469,1.952-2.52c-1.207-2.058-6.354-2.332-5.494-11.207C268.824,92.504,268.604,91.802,270.822,88.747"/>
<path fill="#FFE280" d="M295.01,98.73c0,0,11.582,10.644,13.078,12.226c1.48,1.582,2.131,4.117,1.48,5.789
	c-0.652,1.674-9.331,1.594-6.997-1.962C304.895,111.24,294.732,103.027,295.01,98.73"/>
<path fill="#FFE280" d="M223.196,120.18c0,0-3.175,2.006,0.52,3.262c3.692,1.274,23.759,3.07,34.849,0.228
	c11.077-2.854,13.187-4.014,16.359-9.084c-2.854,0.952-12.991,6.551-41.182,5.277C228.918,119.646,225.097,119.548,223.196,120.18"
	/>
<path fill="#FFE280" d="M231.323,127.782c0,0,4.541-1.061,4.439,0.625c-0.114,1.706-4.645,2.855-7.82,5.599
	c-3.165,2.755-4.966,1.166-4.548-1.057C223.822,130.735,227,128.214,231.323,127.782"/>
<path fill="#FFE280" d="M242.978,131.219c0,0-0.179,0.937-0.321,2.979c-0.135,2.052,0.367,3.784,0.367,3.784
	s-2.179,1.02-2.489-3.471C240.385,132.375,242.218,131.219,242.978,131.219"/>
<path fill="#FFE280" d="M269.27,128.252c0,0,1.099-1.111,3.253,0.838c2.119,1.943,2.86,7.052,1.656,8.901
	C273.161,131.961,269.27,128.252,269.27,128.252"/>
<path fill="#FFE280" d="M283.367,125.284c0,0,0.269-2.318,1.377-0.094c1.119,2.228,2.787,5.937,2.046,8.91
	c-0.654,1.012-1.582,0.55-2.408-3.9C283.541,125.753,283.367,125.284,283.367,125.284"/>
<path fill="#FFE280" d="M259.122,131.416c0,0,2.441,0.262,2.004,4.085c-0.435,3.823-1.395,3.823-2.787,2.091
	C256.944,135.855,257.558,130.2,259.122,131.416"/>
<path fill="#FFE280" d="M294.341,122.572c0,0,5.603,5.76,6.75,7.173c1.133,1.417,3.091-0.542,1.849-2.711
	C301.677,124.864,298.318,122.625,294.341,122.572"/>
<path fill="#FFE280" d="M93.906,120.714c0,0,0-3.297,3.305-2.438c3.293,0.871,23.729,6.883,34.084,6.883
	c10.347,0,21.736-3.396,21.218-5.567c-0.519-2.178-3.745-0.182-8.866,0.25c-5.135,0.44-22.877,1.651-40.359-3.737
	c-4.569-1.411-10.694-2.87-10.353,0.699C93.295,120.364,93.465,121.59,93.906,120.714"/>
<path fill="#FFE280" d="M104.775,123.234c0,0,4.603-1.298,5.207,1.577c0.61,2.87-8.342,2.259-9.808,4.432
	c-1.485,2.178,1.115,3.469,0.425,4.006c-0.692,0.512-5.212-5.658-2.349-7.395C101.121,124.104,101.551,123.943,104.775,123.234"/>
<path fill="#FFE280" d="M132.344,130.888c0,0-0.78,4.446-1.739,6.005c-0.96,1.574-4.253,1.661-4.253,1.661
	S128.605,129.938,132.344,130.888"/>
<path fill="#FFE280" d="M138.513,132.546c0,0-0.158-3.225,0.867-1.667c1.049,1.573,3.998,8.186-3.476,9.047
	C136.862,135.678,138.513,132.546,138.513,132.546"/>
<path fill="#FFE280" d="M186.15,112.301c0,0,2.793,1.829,3.941,3.19c1.136,1.354,4.577,4.369,2.542,7.015
	c-2.037,2.647-5.655,4.537-8.489,3.926c-2.829-0.6,1.117-1.622,2.657-3.247C189.979,119.822,184.184,111.043,186.15,112.301"/>
<path fill="#FFE280" d="M102.852,110.846c0,0-0.179-4.092,1.741-1.629c1.923,2.461,3.067,4.325,4.504,5.288
	c1.441,0.964-1.383-2.099-2.103-4.497c-0.723-2.416-5.037-5.891-5.895-3.969C100.267,107.959,101.096,113.248,102.852,110.846"/>
<path fill="#FFE280" d="M149.294,133.914c0,0,0.441-2.734,1.709-0.854c1.281,1.875,1.079,3.489,0.643,5.146
	c-0.425,1.655-2.134,2.348-2.134,2.348L149.294,133.914z"/>
<path fill="#FFE280" d="M160.757,133.862c0,0-0.427-3.263,0.806-1.82c1.235,1.442,1.812,3.636,1.121,7.389
	C161.286,135.254,160.757,133.862,160.757,133.862"/>
<path fill="#FFE280" d="M172.163,132.199c0,0,2.838,0.212,3.747,3.328c0.914,3.099-1.334,1.279-2.625-0.868
	C172.002,132.516,170.981,131.715,172.163,132.199"/>
<path fill="#FFD300" d="M152.434,62.514c0.78-2.434,1.099,1.269,0.944,2.58c-0.26,2.235-1.332,5.855-0.574,8.916
	c1.376,5.544,6.283,5.752,6.971,7.695c0.291,0.581-0.317,0.823-1.034,0.468C149.527,79.115,148.426,71.108,152.434,62.514"/>
<path fill="#FFFFFF" d="M160.035,42.922c0,0-1.679-0.25-1.417,1.102c0.242,1.372,0.927,1.804,1.417,1.116
	C160.532,44.466,160.839,43.288,160.035,42.922"/>
<path fill="#FFFFFF" d="M179.008,47.614c0,0-1.36,0.562-0.853,2.107c0.491,1.546,2.468,1.111,2.542,0.054
	C180.74,48.72,180.369,47.247,179.008,47.614"/>
<path fill="#FFD300" d="M229.95,112.949c0.381-0.802,1.792-1.043,3.331,0c1.471,1.88,4.258,2.512,4.808,4.957l-1.835,0.609
	c-2.318-0.12-7.721,0.057-9.274-1.105C227.972,115.915,228.962,114.44,229.95,112.949"/>
<path fill="#3D1E0B" d="M152.434,62.514c0.78-2.434,1.099,1.269,0.944,2.58c-0.26,2.235-1.332,5.855-0.565,8.916
	c1.368,5.544,6.274,5.752,6.964,7.695c0.291,0.581-0.317,0.823-1.034,0.468C149.527,79.115,148.426,71.108,152.434,62.514
	 M229.95,112.949c0.381-0.802,1.792-1.043,3.331,0c1.462,1.88,4.25,2.512,4.808,4.957l-1.835,0.609
	c-2.318-0.113-7.721,0.057-9.274-1.105L229.95,112.949 M255.167,52.13c-8.248,0.711-32.709,7.008-33.7-3.914
	c-0.191-0.814,0.629-1.859,0.751-1.971c3.436-7.008,15.854-7.502,24.804-8.963c3.082-0.114,6.172-0.24,9.266-0.363
	c5.068,1.261,17.029,1.403,20.019,5.929c-4.574,0.533-5.724,2.603-7.038,6.302c-4.309-0.557-10.777-2.452-13.729,1.123
	C255.542,51.372,255.622,51.015,255.167,52.13 M408.726,128.534c-3.105-0.229-3.352-1.264-4.819-2.973l-0.749,0.37
	c-0.897,4.559-2.052,7.778-4.809,10.392c-2.938-0.798-3.759-2.55-7.612-0.834c-0.734-0.419-0.545-1.39-0.545-1.759
	c0.434-2.645,1.449-3.77,2.452-5.723l0.508-0.958c0.419-0.55,0.536-1.27-0.378-0.742l-2.591,2.228
	c-1.2,3.844-2.067,7.167-7.046,7.417c-3.119-1.71-3.319-4.965-5.936-7.043l0.376-0.745c4.689-1.857,9.388-3.709,14.088-5.56
	c2.865-9.193,0.196-14.671-6.118-17.013c-13.678-5.091-51.155,5.469-68.42,1.056c-7.1-1.813-16.569-7.809-19.294-14.091
	c-0.812-1.881-1.081-5.268,0.065-7.915c0.353-0.833-0.812-0.701-1.161-0.619c-0.508,1.115-1.001,2.222-1.497,3.348
	c-3.583-0.751-7.173-1.488-10.756-2.233c-16.85-0.546-28.414,5.754-36.352,9.275c-15.922,7.043-26.03,19.282-57.921,14.9
	c-1.204-0.571-1.541-0.19-1.785-0.07c0.341,6.205,4.183,7.05,4.43,13.778c-2.312,3.946-5.729,5.582-9.251,7.37
	c-0.894,0.482-1.326-1.172-1.792-2.63l-0.787,1.147c0.516,5.147-2.766,7.169-6.326,9.269c-0.853,0.578-1.008,0.442-1.35-1.933
	c-1.234-1.987-1.858-2.392-3.094-4.37c-0.545-0.862-1.048-0.877-0.742,0.37c-0.349,3.942-2.342,5.658-5.196,7.042
	c-1.187,0.829-1.768,0.888-1.485-0.375c-0.158-3.255-1.75-5.576-4.461-6.293c-0.468,4.731-3.523,6.185-7.037,7.78
	c-1.227,0.646-1.331,0.327-1.11-1.112c0.588-2.424,0.24-6.207-2.163-6.943c-0.881,4.368-5.718,7.596-10.81,7.693
	c0.668-3.132,2.13-4.734,1.841-8.162l-0.741-1.523c-1.741,4.121-4.563,6.013-8.898,7.828c-0.98,0.235-2.392,0.823-2.759,0.442
	c0.673-0.266,1.249-3.575,2.559-4.917c1.368-1.716,2.555-2.319,3.91-4.062l-0.746-0.371c-2.837-0.12-5.683-0.246-8.523-0.363
	c0.424,3.528,0.045,5.663-2.229,7.417c-1.65-0.678-2.949-3.168-7.957-2.779c-1.481-1.471-0.135-1.345-0.305-3.693
	c0.989-1.737,1.71-1.82,2.696-3.545l-0.371-0.376c-2.857,1.809-14.132,11.857-18.543,4.462c-1.035-1.151-0.997-1.689-0.746-3.344
	c2.804-2.708,7.554-2.365,10.755-4.821l-0.37-0.737c-4.149,0.119-9.075,2.724-11.126,1.477c-1.83-0.964-2.319-2.718-3.717-4.079
	c-0.059-2.134,0.147-3.604,0.743-4.814l1.115-0.371c14.403,4.638,31.954,11.213,51.186,6.292c4.327-1.725,8.666-3.455,12.979-5.185
	l0.37,0.371c0.255,1.617,0.5,3.219,0.752,4.814l1.105-0.363c5.172-6.764,6.889-7.665,4.71-18.174l2.015,1.807
	c3.197,3.323,5.489,4.651,3.09,10.873c6.729-1.263,9.115-8.271,8.075-14.617c0.497,0.37,1.726,0.942,2.145,1.939
	c0.609,1.12,0.9,2.552,1.516,3.659l1.651-2.462c1.172-4.71,3.439-2.481,5.729-8.991c0.49-1.399,0.072-3.979,0.407-5.298
	c0.218-0.909,0.877-1.198,1.078-2.021c0.459-1.993,0.759-4.526,0.602-6.192c0.708-0.921,1.347-1.53,1.942-3.085
	c0.759-1.978,1.383-5.142,1.412-7.751c9.746,0.971,21.836,2.644,32.771,2.474c7.491-0.207,15.071-1.241,22.618-1.858
	c50.507-9.262,63.687-7.666,94.395-1.488c12.463,2.519,35.367,2.114,33.569-10.753c-1.721-12.314-29.325-12.013-42.846-8.905
	c-24.411,5.601-49.574,8.927-75.101,13.728c-11.571,2.171-28.263,4.888-39.309,0.371c-11.268-4.613-18.715-16.766-7.799-27.077
	c13.133-12.403,51.087-7.206,60.465-21.512c4.034,2.533,0.306,10.632-0.741,13.353c4.661-1.294,8.012-4.169,14.088-5.205
	c8.6-1.44,16.512,3.248,25.223,1.123c8.21-2.005,16.017-9.928,25.596-5.192l-0.366,0.736c-9.391,1.679-14.748,10.695-23.006,14.108
	c-6.743,2.788-15.977,0.475-22.877,0.831l0.623,0.646c9.899,4.177,8.865,8.92,14.083,12.829l-1.829,0.9
	c-4.472,2.25-11.631,0.283-15.584-1.497c-4.582-2.837-9.15-5.675-13.725-8.524c-12.31-7.007-50.069-5.773-54.893,7.039
	c-3.261,7.942,6.307,12.085,18.716,11.013c9.655-0.85,20.019-3.061,23.938-2.849v-0.371l-0.74-1.106
	c-0.741-0.371-1.49-0.743-2.234-1.122l0.378-0.736c4.449-0.856,6.476,0.872,10.371,1.857c0.932-2.668,1.723-5.099,3.718-6.688
	c3.935,0.832,9.553,5.051,12.229,2.98c4.807,2.501,16.819,6.73,23.379-1.123c-2.251-0.842-6.604-4.446-7.047-7.09
	c4.368,0.901,8.969,4.921,14.088,5.232l0.749-1.1c0.132-1.496-0.386-3.181-0.262-4.661c0.148-0.833,0.85-1.168,2.12-0.167
	c3.833,2.417,10.183,5.473,15.944,4.454c0.317-3.13-2.941-4.802-2.675-8.325c2.435,1.282,12.967,6.63,14.548,5.346
	c-0.138-1.851-1.233-4.262-1.356-6.11l2.454,2.042c1.979,1.736,3.96,3.453,5.942,5.19h0.747c1.294-3.274,2.048-6.922,3.791-9.595
	c1.012-0.853,0.768,0.943,1.012,1.057c1.846,5,5.477,9.256,9.65,11.134c2.587-3.034-0.151-7.497,6.169-12.731l-0.979,3.454
	c-0.104,6.95,0.22,10.61,4.46,14.099c3.873-0.774,3.662-3.992,5.932-6.311c3.913-3.998,12.761-1.426,17.287-8.092
	c-3.759,11.587-10.974,9.891-13.906,14.586c-2.61,4.171-0.22,6.965-1.54,13.17c-0.638,3.093-2.726,4.727-4.06,7.047h0.366
	c4.434-2.021,6.772-6.213,10.753-8.169c5.398-2.638,14.793,1.298,22.577-2.157c-6.712,12.026-13.505,7.759-22.001,10.228
	c-3.794,1.1-5.349,3.345-8.363,4.913c-4.392,2.29-10.384,3.09-15.94,4.079c-12.476,2.232-30.436-1.864-39.239-2.169l0.291,1.808
	c6.668,8.136,14.383,12.956,27.443,14.835c17.203,2.475,37.704-17.232,49.691-1.126l-0.737,0.753
	c-0.855-0.245-1.729-0.504-2.597-0.753l-0.758,0.753c2.802,5.268,9.137,4.771,9.655,12.984l-0.379,0.736
	c-1.481-0.49-2.955-0.979-4.44-1.49l-0.381,0.382c1.568,2.944,4.705,6.285,4.821,9.269c-1.355-0.246-2.713-0.491-4.088-0.736
	l-0.362,4.072l2.014,0.32c0.498,0.34,1.914,0.431,2.888,2.936C409.691,122.959,409.858,125.093,408.726,128.534 M373.438,128.408
	c-1.654-0.505-1.423-0.593-2.487-1.521c-1.347-3.13-0.391-5.835,0.942-6.36c4.1-0.09,7.888,1.753,10.105,3.597l-1.462,0.703
	C377.82,125.681,375.719,128.785,373.438,128.408 M308.216,112.949c0.437,0.816,0.856,5.723-2.744,6.286
	c0.248,5.544-2.675,9.499-3.76,10.412c-3.485-2.278-5.417-4.673-7.956-6.681l-0.755,0.735c0.898,3.863-3.251,9.135-6.764,9.842
	c-0.931-3.366-1.221-6.751-2.87-9.188c-1.559-0.899-0.872,0.333-1.12,0.467c-0.408,5.745-2.939,8.844-6.475,11.403
	c-0.256-0.125-1.712,0.595-1.32-0.274c-1.044-4.652-4.021-7.371-7.419-9.644l-0.731,0.369c0.195,6.579-2.591,9.323-6.683,11.5
	l-1.102-0.736c-3.639-3.426-1.731-4.007-2.603-7.047c-1.601-0.135-2.678,0.39-4.808-0.371c-0.858,0.142-0.247,0.482-0.374,0.745
	c1.095,2.406,1.14,4.623,0.374,7.41l-1.481,1.107c-2.305-2.24-5.241-1.725-7.638-1.333c-2.503-3.781,0.072-6.604-0.893-7.929
	c-3.062,2.46-7.81,9.482-14.36,6.772c-0.867-0.618-1.315,0.242-2.695-1.964c0.091-3.071,0.929-3.159,2.222-4.808
	c2.712-1.243,5.444-2.475,8.161-3.715v-0.375c-1.432,0.061-5.594,0.507-9.327,2.833c-4.384-0.198-10.701-3.7-5.88-7.651
	c7.304-4.116,38.879,5.739,55.742-7.206c0.853-0.678,0.632-1.433,0.632-1.694c-9.632-6.241-12.51-14.77-3.708-24.119
	c0.37,0,8.571-1.688,18.917,0.075c1.139,0.006,2.459,0.358,3.434,1.087C290.725,101.702,303.267,107.191,308.216,112.949
	 M100.87,104.424c5.825,0.986,10.172,7.724,12.987,11.861v0.375H112c-5.876-1.764-11.185-1.785-13.349-7.417
	C99.297,106.987,99.783,105.956,100.87,104.424 M141.313,111.091c-1.792,2.348-4.496,3.621-7.797,4.46v-10.013h-0.372
	c-2.446,1.434-5.41,3.561-9.469,2.375c1.682-3.359,2.135-7.728,1.316-7.574h-0.378c-3.674,0.817-6.268,2.388-10.105,1.808
	c-1.041-0.198-0.509-0.713-0.269-1.071c0.862-2.213,1.731-4.445,2.594-6.667c-3.808,0.617-7.128,1.227-10.8-0.381
	c0.854-0.86,2.147-1.726,3.016-2.585c0.727-0.936,1.232-1.985,1.857-2.972l-0.741-0.736c-3.211,0.914-6.652-0.78-9.395-1.814
	c0.916-1.135,1.54-1.952,3.079-3.016c1.396-0.588,2.66-1.546,2.228-2.232c-0.371-0.244-0.327-0.86-1.008-0.995
	c-3.717-0.454-7.611-0.675-10.118-2.973l1.1-1.212c3.167-2.638,3.763-2.38,8.534-2.239c0-0.109,0.637,0.022,0.049-0.899
	c-2.141-3.377-1.019-10.538-1.375-9.057c-0.887,4.711-8.147,5.333-7.943,3.666c0.126-8.183-3.027-5.516-3.622-7.487
	c-0.446-1.442,0.729-2.944,2.876-4.236c5.01-2.985,7.938,2.809,7.053-0.147c-0.491-0.618-0.562-1.449-1.493-1.857
	c-3.9-0.767-7.24-2.542-8.162-4.452c-0.723-1.829-0.491-4.503,0.908-6.675c0.467-0.546,0.952-0.829,1.693-1.122
	c4.163-0.608,8.071,7.369,8.531,5.576c-2.132-6.305-3.001-13.402,2.738-15.756c1.181-0.314,3.47-0.408,5.059,1.285
	c2.63,3.218-0.363,11.843,0,18.181c0.381,7.043,4.262,15.539,7.417,20.765c2.615,3.908,5.68,7.738,9.641,11.497
	c3.528,2.744,8.968,6.255,12.64,7.026c0.462,1.114,1.368,3.114,1.815,4.471c0.666,0.702,1.164,1.169,2.281,1.971
	c1.966,3.12,4.794,6.927,10.978,15.206l0.74,1.851C150.427,114.175,146.04,112.888,141.313,111.091 M114.23,35.43
	c0.007-1.033,1.888-1.233,2.696-1.219c2.63,0.134,2.766,0.943,4.347,1.971c2.976,3.687-3.319,7.326-5.848,18.617
	c-0.261,0.823-0.507,1.574-0.625,1.574l-0.574-1.277C112.515,48.267,114.024,42.493,114.23,35.43 M140.54,79.803
	c-1.885-4.411,3.086-9.702,4.476-12.475c0.342-0.974-0.013-0.751-0.366-0.363c-1.73,1.85-3.363,3.981-5.106,5.84l-0.767-0.348
	c0-1.116,0-2.483,0.291-3.279c1.629-4.949,2.728-7.579,6.707-11.148c0.419-0.208-0.048-0.937-0.773-0.714
	c-1.857,0.616-4.661,2.205-6.519,2.813c0-0.609,0.376-2.305,0.748-3.176c1.111-1.622,2.069-3.268,3.554-4.465l1.117,0.021
	c0,0.729,0.158,1.568,0.704,2.352c1.331,1.895,3.19,4.314,3.718,4.569c1.056,0.499,2.126,1.006,2.986,1.596
	c-3.344,7.232-5.805,14.904,3.322,21.508c1.791,1.295,4.014,2.199,5.826,2.467c1.117,2.148,6.869,3.508,8.282,1.617
	c1.985-0.375,3.951-0.737,5.931-1.107c6.37-2.765,9.203-8.608,9.275-15.579c4.177-0.163,5.27-2.02,7.418-4.083l0.742,1.118
	c1.738,3.142,0.037,8.167-1.482,10.376c-1.113-1.1-2.221-2.223-3.333-3.332h-0.375c0.983,3.48,3.233,6.793,1.859,10.751
	l-0.751-0.373c-0.604-1.89-1.343-2.795-3.334-3.337v0.376c2.305,3.866,4.816,11.092,0,14.836h-0.361
	c-0.076-3.771-1.54-6.489-3.717-8.168l-0.745,0.749c1.03,2.356,3.871,8.489,2.102,11.535c-2.972-2.224-6.382-5.551-9.363-7.784
	l1.316,2.944c1.984,2.997,3.844,6.949-0.572,13.452c-2.438-7.276-12.11-12.611-13.967-16.801
	c-0.392,7.242,8.936,12.362,1.571,22.616l-0.75-0.373c-1.896-6.375-7.26-9.661-10.377-14.835c-2.218-3.648-3.248-6.265-1.956-12.158
	c-0.681-0.05-1.134,0.542-1.383,0.654c-0.751,1.241-1.694,3.224-2.438,4.466c-1.085-0.682-1.016-1.426-1.275-2.228
	c-1.072-4.537,1.984-6.275,3.077-10.26l0.262-1.249c-0.135,0-0.185-1.143-1.115,1.094c-0.873,1.688-1.02,2.348-2.625,3.241
	l0.021-2.109c0.846-1.63,1.427-3.169,1.531-5.736l-0.648,0.229l-0.556,1.15c-0.373,0.862-0.692,1.268-1.071,2.132
	C141.18,79.945,140.691,80.089,140.54,79.803 M165.426,45.821c-0.752,1.105-1.496,2.231-2.238,3.329
	c-0.854-0.113-1.726-0.237-2.596-0.364c-3.129-1.256-5.624-4.846-4.636-8.102l2.224,0.305c3.531,1.434,5.808,3.836,5.808,3.836
	C165.535,44.515,165.726,45.14,165.426,45.821 M175.064,50.637v-1.85l0.371-0.733c2.098-0.812,5.872-1.438,8.163-1.125
	c1.701,0.247,2.913,0.114,3.722,0.789l-0.059,0.134C185.234,52.711,176.72,54.477,175.064,50.637 M146.441,46.514
	c-2.573-5.098,1.789-11.643-0.312-18.308c3.44,1.295,6.844,4.699,7.172,5.062c0.104-3.143,1.509-7.721,2.788-9.638
	c0.729,0.624,1.601,1.547,2.275,2.896c0.879,1.369,1.729,2.723,2.609,4.091c0.595-1.295,0.946-3.561,1.547-4.846
	c1.008-2.172,2.46-4.291,3.454-6.47c0.995,2.585,2.29,6.295,3.277,8.904c1.412-0.5,0.404-1.047,1.107-2.163
	c0.625-2.974,1.614-4.333,2.352-6.313c1.334,2.292,2.407,6.95,3.093,10.506h0.371l0.75-0.371c0.987-2.273,1.915-3.708,2.905-5.062
	c3.514,3.644,2.222,9.849,3.082,10.011c1.361-0.057,3.028-3.142,4.147-4.134c1.971,2.172,0.848,7.248,2.036,8.409l1.168-0.686
	c2.496-2.193,4.68-3.717,7.982-2.221c-0.681,6.412-1.307,17.077-4.644,18.536c-0.606,0.613-2.463-0.991-3.335-1.111
	c3.688,6.579,1.107,14.28-6.305,14.464c-1.115-0.617-2.228-1.232-3.333-1.851c-0.611-0.246-0.993-0.135-0.745,0.743
	c4.8,8.092-2.788,16.715-10.019,17.056l-0.744-0.364l0.382-2.233c6.226-0.338,10.8-7.756,8.162-14.461h-0.377
	c-1.099,3.062-1.97,4.556-6.311,4.45c-1.344-0.223-2.638-1.583-3.333-2.6c0.354-5.188,3.871-4.551,6.666-7.053v-8.526
	c4.562,3.247,10.827,0.98,13.196-2.477c0.32-0.908,0.506-1.603,0.61-2.125c0.958-1.824,3.745-1.867,3.794-5.106
	c-1.553,3.138-5.88,2.164-9.596,2.255c-3.354,0.071-7.112,0.467-7.464-0.239c-0.25-1.123-0.454-2.945-0.704-4.052l-0.785,1.398
	c-0.284,5.495-0.376,10.538-0.872,15.862c-2.618-1.176-5.545-2.164-9.305-1.438v-0.364c1.731-5.567,3.469-11.133,5.197-16.692
	c-0.068-0.746-0.438-0.868-0.742-0.371c-0.626,1.695-0.888,2.907-2.224,3.328h-0.377c-2.363-0.124-3.813-2.888-5.809-3.888
	c-2.043-0.502-3.469-0.556-5.575-0.809c-0.986-0.617-1.839-2.958-2.71-4.326c-0.46-0.736-0.917-0.267-0.305,2.779
	c0.916,2.335,3.211,3.589,3.211,3.589s0.087,3.389,1.171,5.256c1.905,3.231,5.54,3.367,8.53,5.565
	c-0.725,2.133-2.525,5.212-1.856,7.419c1.628,3.433,4.721,5.135,4.083,10.013c-1.437,0.682-2.15,1.03-4.455,1.115
	c-2.749-0.991-4.771-1.896-5.936-4.46c-1.376-2.228-0.38-5.247,0.751-7.047l-0.751-0.731c-1.475,0.241-2.966,0.496-4.454,0.731
	c-2.63-0.543-4.766-3.224-5.507-6.945l-0.415-0.353l0.578-1.285C145.409,48.489,146.479,47.983,146.441,46.514 M415.621,123.191
	c0,0-0.523-3.24-2.062-5.532c2.645,1.36,1.813-6.116,0.897-7.923c5.259-1.814-0.621-11.848-4.558-14.879
	c1.147-0.898,3.312,0.625,2.541-0.802c-2.445-3.119-4.261-6.496-6.663-8.08c-1.77-1.144-5.821-0.458-5.821-0.458
	s-3.512-3.065-6.579-2.729c-6.836,0.73-17.808,5.18-27.293,7.165c-13.379,2.81-29.038-5.631-31.703-11.104
	c12.5,1.487,32.146,5.894,45.051,1.466c5.949-2.043,10.523-7.347,16.314-8.899c2.725-0.125,5.432-0.25,8.175-0.376
	c11.307-2.512,14.742-9.306,17.804-20.403c-0.348-2.213-0.836-1.165-1.11-0.364c-4.612,12.625-18.362,4.427-29.742,10.702
	c-2.28,2.573-1.663-0.312-1.845-1.116c-4.993-17.152,18.942-9.721,14.146-29.627c-0.124,0-0.486-0.305-0.617,0.865
	c-1.697,8.61-10.06,5.181-16.809,8.659c-5.491,2.831-5.506,6.943-6.618,7.223c-3.395-6.466-2.468-12.34-0.062-17.472
	c0.851-1.978-1.153-1.438-3.767,0.235c-3.724,2.537-6.822,5.62-6.193,12.124c-0.312,0-1.27-0.134-2.648-1.233
	c-4.739-4.907-4.659-8.07-5.56-10.771l-1.118,0.75c-2.734,1.166-5.188,4.696-5.996,7.729c-3.933-1.39-4.28-5.478-9.593-5.87v0.744
	c-0.76,1.27-0.705,2.445-0.365,4.065c0.305,0.809-0.565,0.616-1.492,0c-2.942-1.34-8.262-3.739-11.109-2.588
	c0.116,2.225-0.495,3.963,1.54,7.041c-6.301-0.247-10.706-4.61-16.753-5.184l-0.36,1.043c-0.386,1.851-0.386,3.396-0.755,5.255
	c-3.13-0.071-10.232-3.992-12.892-5.736c18.465,2.414,29.599-20.793,41.819-15.772v-0.371c-2.495-4.198-6.691-7.331-14.094-6.672
	c-5.232,0.458-10.163,4.717-15.2,6.3c-10.075,3.169-19.376-2.838-30.05-0.731c-2.902,0.57-4.228,2.228-7.409,1.846
	c0.441-3.751-0.924-8.992-3.344-11.115l-0.744,0.355c-4.658,10.652-31.569,11.065-50.127,16.886
	c-10.859,3.404-21.382,11.959-16.261,25.402c5.332,14.025,28.222,15.899,46.729,12.233c27.98-5.517,58.272-8.1,86.053-15.199
	c13.842-3.539,29.969-0.862,36.355,6.681c0.029,13.548-22.456,12.147-34.135,9.269c-14.405-3.551-42.875-8.11-58.599-3.708
	c-21.666,6.041-63.395,11.072-87.906,4.453c-0.86-3.139-1.837-6.906-1.107-10.391c4.46-1.845,7.342-16.664,5.561-21.883
	c-3.731-0.888-5.419,0.158-8.898,0.736c-1.236-2.214-2.477-4.447-3.708-6.668h-0.376c-0.561,1.61-0.505,1.703-2.222,2.221
	c-0.641-3.507-2.29-7.228-4.461-9.275l-0.735,0.372c-0.386,0.868-0.751,1.732-1.115,2.596h-1.487
	c-0.408-1.404-1.711-6.566-2.228-7.048l-1.106-0.371c-1.361,1.612-2.716,3.219-4.084,4.821c-1.34-1.573-1.567-3.211-3.697-4.079
	c-1.736,2.342-3.474,4.702-5.205,7.05l-1.481-0.376l-2.964-4.446l-0.744,0.363c-0.987,2.476-1.974,4.944-2.958,7.417
	c-2.755-0.447-4.852-1.83-7.796-1.105c0.424,8.284-0.227,15.22-0.743,22.998c-6.242,2.419-7.581,6.878-6.999,13.44
	c0.05,0.573,2.681-1.533,2.703-0.259c0.025,1.391-2.556,6.16-2.436,6.838c0,4.625,1.398,4.199,1.79,6.17
	c0.285,1.404-0.17,2.457,0.135,3.484c0.843,2.87,1.695,4.028,1.845,6.666c-7.842-0.639-25.888-18.652-24.103-28.189
	c1.188-6.398,5.472-11.594,7.04-17.063c2.703-9.362-4.127-18.148-11.126-17.421c0.735,3.263,2.608,4.367,1.859,8.526h-0.371
	l-0.745-0.371c-1.977-5.887-5.744-11.342-14.09-11.126c2.169,2.885,3.998,4.869,4.078,10.02c-1.977,2.313-3.292,4.548-3.334,8.9
	c-0.181,1.58-0.642,0.768-1.111,0.531c-3.559-2.914-6.213-5-12.476-3.614c-2.512,0.92-5.114,3.976-3.105,3.458
	c4.05,0.447,5.434,1.688,7.418,4.079c-0.79,2.843,0.229,5.73,1.523,7.529c1.008,1.441,2.451,2.03,1.442,2.482
	c-2.015,1.515-3.205,3.658-3.709,6.673h-7.417v0.37c2.601,6.245,6.687,7.894,11.252,7.968c2.222,0.031,5.21,1.383,6.851-0.7
	c0.884-0.208,1.22,2.317,1.476,2.816c-4.115,0.196-8.418,3.154-9.201,6.611c3.094,1.106,5.682,2.156,8.764,3.254
	c1.397,0.078,1.553,0.669,0.511,1.199c-1.48,1.115-2.956,2.214-4.452,3.337l0.751,1.107c3.213,1.045,5.396,2.51,9.262,3.333
	c0,0.497,0.158,0.617-0.504,1.346c-1.233,0.854-1.962,1.874-3.197,2.734c2.178,2.476,5.631,2.635,9.638,3.338
	c0.306-0.037,0.447,0.876,0,1.857c-1.231,0.893-2.221,2.744-2.587,4.454c4.374,0.104,8.133,0.431,11.857-0.366
	c0,0.495,0.454,0.991,0,1.994c-0.816,1.659-1.546,2.262-2.594,3.56l0.382,0.751c3.879,0.148,7.432,0.225,10.747-0.376
	c0,1.373,0.446,2.874,0,4.084c-0.98,2.229-1.924,4.749-1.924,4.749s5.151,1.264,12.101-4.829c1.226,1.084,3.335,1.999,5.41,2.303
	c-0.475,1.412,0,0.77-1.105,1.482c-2.827,1.651-9.774,2.009-12.984,1.852c-4.461-0.246-8.681-0.077-13.141-0.314
	c-5.461-1.679-9.133-17.403-22.355-17.815c-1.949,0.087-6.636,1.814-7.16,6.622l1.106-0.043c2.433-1.167,3.48-0.646,5.559,0.424
	c0.255,1.481,0.502,2.958,0.745,4.454c-8.63-0.744-15.772-1.012-16.686,7.781c3.963-2.086,6.566-2.673,8.699-1.863
	c0.499,2.905,2.145,4.072,3.909,6.324l0.468,1.106c-6.564,2.091-6.955,10.19-4.177,13.722c0.378,0.511,1.22-0.665,1.384-1.534
	c1.077-5.135,3.185-3.961,4.339-5.722c2.892,2.417,5.07,3.836,9.482,2.44c2.736-0.872,4.304-2.692,6.309-3.027
	c0.262,0.681,0.291,3.256,2.349,5.106c0.521,3.523-1.176,7.341-0.551,6.928c2.163-1.472,6.199-3.028,7.886-5.38
	c3.382-0.417,5.599-4.282,4.995-7.872h3.596c0.135,0.375-0.943,0.768-1.583,1.978c-1.117,2.71-2.224,4.743-3.345,7.46l0.376,0.373
	c5.162,0.049,7.805-1.636,11.953-4.423c-0.352,1.927-2.319,4.133-3.424,5.156c-0.768,0.992-0.068,1.036,2.943,1.036
	c6.339-0.083,8.263-1.972,10.775-4.734h1.114v0.742l-0.371,5.184c5.092-1.02,9.617-2.205,11.652-7.581
	c2.156,3.269,0.802,5.477,2.069,6.481l0.371,0.363c3.923-1.213,6.371-3.718,8.527-6.672l1.113,0.742
	c0.246,1.486,0.49,2.958,0.745,4.442c2.005-0.376,8.163-2.445,10.397-8.218c4.883-1.202,10.395-6.59,11.63-8.306
	c1.918-4.306-2.201-7.961-3.643-13.007c3.092,0.498,7.84,1.596,10.754,1.833c6.4,0,11.891-0.758,18.799-2.897
	c0,0.127,3.661-1.36,4.718-1.665c13.43-5.224,18.53-9.247,26.349-12.992c4.566-1.716,9.129-3.447,13.715-5.179l0.884,0.073
	c-1.433,6.432-5.138,9.268,0.958,17.735c1.643,2.228,5.344,4.234,5.272,5.561c-6.621,5.073-23.925,6.277-31.6,4.972
	c-2.957-2.729-5.284-5.042-8.246-7.76c-1.276-0.507-2.451,0.065-2.903-0.494c-2.446-2.221-8.784,0.664-9.487,1.161
	c-1.208,0.61-1.689,1.76-2.355,2.854c2.224,0.333,6.186,0.652,7.261,2.224c0.262,0.802-0.154,1.417-0.941,1.455
	c-2.893,0.157-6.399,0.255-8.681,1.777c-5.041,3.393-7.433,8.881-5.417,10.875c2.34-2.232,3.221-3.427,8.168-3.354
	c1.023,2.048,3.201,1.983,4.814,3.354c-6.585,7.015-4.096,11.568-1.709,15.292l0.974-0.081c1.406-1.894,1.971-5.181,4.079-6.318
	c4.662-2.526,5.677,0.779,11.871-4.829c0.55-0.831,1.041-1.553,1.487,0c0.661,4.858,3.178,3.055,2.222,11.87
	c-0.148,0.554-0.425,0.904,0.795,0.364c1.211-0.56,4.019-1.346,4.019-1.463c3.049-1.145,6.891-6.021,7.056-10.02
	c0.041-2.564,0.808-1.339,1.469,0c1.476,2.222,2.824,3.879,4.827,5.56l2.601-2.231c2.436-2.534,4.165-4.2,5.197-8.518
	c0.463-0.781-0.104-1.908,1.857,0.375c1.785,2.102,2.809,5.135,3.32,8.517c0.234,1.248,0.744,0.617,2.227,0
	c2.665-2.119,5.816-4.752,7.41-8.517c0.231,0,0.351-1.561,0.76,0c0.491,1.976,0.155,3.832,0.665,5.815
	c5.409-1.192,8.392-5.236,10.232-8.569c0.569-1.263,1.277-1.198,2.077-0.601c0.891,1.587,3.238,3.083,4.601,4.459
	c0.247,0.887,0.565,1.106,1.103,0.371c0.956-1.916,5.734-7.313,5.481-11.659c4.085-2.729,3.505-6.697,2.534-8.739
	c-2.644-5.608-13.923-9.146-13.727-15.962c-0.608-4.435,2.939,3.226,4.812,4.835c4.239,3.61,12.462,7.371,18.173,8.903
	c15.155,4.047,53.401-7.88,67.208-1.383c3.671,1.743,4.92,5.447,4.368,10.281c-0.363,0.86-0.735,1.731-1.095,2.597
	c-6.401,4.665-9.239-1.491-18.291-1.688c-5.138-1.4-7.012,4.175-8.413,8.354c-0.348,2.343,0.524,2.624,1.106,2.239
	c1.349-1.114,2.973-3.611,5.169-3.679c0.479,1.456,1.942,2.893,3.785,3.746c-2.264,2.87-2.974,7.881-0.435,11.805
	c0.756,0.45,1.09-0.083,1.117-0.751c1.196-5.217,5.791-6.035,5.791-6.035s1.605,2.488,3.857,2.702
	c2.679,0.255,3.675-1.812,5.926-1.486c0.688,4.859,3.452,7.314,7.039,9.349c1.383,0.856,2.771-0.059,3.345,0.275
	c-0.542-2.276-1.806-4.395-0.74-7.042c0.74-2.249,1.52-0.909,2.955-2.222c0.986-2.587,1.985-5.188,2.968-7.78
	c4.597,1.895,7.222,1.374,8.526,6.673c0.626-0.499,2.495-2.914,2.985-5.526C417.799,125.078,415.621,123.191,415.621,123.191"/>
<path fill="#3D1E0B" d="M161.336,92.555c0,0,6.666-0.47,7.595-8.169c0.929-7.687-0.549-10.473,0.468-12.135
	c0.544-0.908-0.178-1.576-0.9-2.248l-1.702-1.276c-0.653-0.092-1.966,0.595-3.3,0.958c-1.3,0.366-2.631,0.396-2.994,0.81
	c-0.742,0.828-1.672,5.005-1.302,7.968c0.373,2.963,2.036,8.441,2.134,10.657C161.434,91.349,160.406,92.555,161.336,92.555"/>
<path fill="#009CD5" d="M243.009,138.997c0,0,1.826,4.89,1.278,5.837c-0.56,0.946,3.672-1.34,4.17-4.841
	C246.841,137.552,243.009,138.997,243.009,138.997"/>
<path fill="#009CD5" d="M221.38,143.271c0,0,1.619-3.387,4.066-4.385c2.439-1.008-2.619-0.726-3.056-4.89
	C222.445,132.221,219.16,138.332,221.38,143.271"/>
<path fill="#009CD5" d="M228.615,111.396c0,0-3.779-1.552-8.682,1.633c4.161,1.028,5.938,2.973,5.938,2.973
	S227.58,111.766,228.615,111.396"/>
<path fill="#009CD5" d="M216.825,121.332c0,0-5.195,2.149-5.795,6.753c2.915-2.45,3.938-2.747,5.501-2.228
	C215.487,123.48,216.825,121.332,216.825,121.332"/>
<path fill="#009CD5" d="M114.508,141.554c0,0,3.653-1.008,4.986-4.145c-1.753-3.226-5.447-2.431-5.447-2.431
	S115.726,137.898,114.508,141.554"/>
<path fill="#009CD5" d="M94.29,126.906c0,0-5.517,2.93-4.341,9.343c1.846-3.655,5.036-5.037,5.036-5.037
	S93.657,128.764,94.29,126.906"/>
<path fill="#009CD5" d="M82.836,117.354c0,0,4.4-2.281,7.155-0.424c0.317-2.972,1.323-3.981,1.323-3.981
	S84.374,113.007,82.836,117.354"/>
<path fill="#009CD5" d="M92.595,105.264c0,0,3.717-0.957,5.516,1.013c0.259-2.084,2.117-3.51,2.117-3.51
	S95.404,100.751,92.595,105.264"/>
<path fill="#009CD5" d="M94.897,39.146c0,0-4.748-2.973-9.312-0.142c2.778,0.518,5.81,3.501,5.81,3.501S91.537,39.868,94.897,39.146
	"/>
<path fill="#009CD5" d="M104.829,29.409c0,0,2.877-1.248,4.267,0.099c-0.729-3.986-2.594-6.955-7.056-7.721
	C104.97,25.436,104.829,29.409,104.829,29.409"/>
<path fill="#009CD5" d="M116.053,32.717c0,0,4.221,0.046,5.223,1.004c-0.234-2.871-1.583-6.717-6.376-8.487
	C117.011,28.251,116.615,31.658,116.053,32.717"/>
<path fill="#009CD5" d="M364.09,128.995c0,0,2.336-3.016,4.618-3.992c0.072-2.881,0.913-4.03,0.913-4.03
	S365.178,121.406,364.09,128.995"/>
<path fill="#009CD5" d="M372.976,139.013c0,0,2.105-4.488,5.503-4.618c-1.178-2.718-2.396-4.731-2.866-4.519
	C375.151,130.08,371.176,134.062,372.976,139.013"/>
<path fill="#009CD5" d="M398.042,144.855c0,0-3.304-3.113-0.856-7.351c-2.249-2.385-5.495-1.188-5.69-0.533
	C391.278,137.63,393.469,143.19,398.042,144.855"/>
<path fill="#009CD5" d="M410.556,128.573c0,0,2.976,2.114,3.44,4.172c1.654-4.434,0.52-10.13-0.596-9.733
	C412.268,123.42,409.832,125.458,410.556,128.573"/>
<path fill="#009CD5" d="M91.346,60.983c0,0-3.321,2.489-6.028,1.656c4.781,4.569,8.405,4.77,8.405,4.77S94.663,63.783,91.346,60.983
	"/>
<path fill="#009CD5" d="M162.363,71.506c0,0-2.326,1.204-1.771,6.213c0.561,5.011,2.604,10.011,2.702,11.958
	c0.086,1.948,2.133-1.115,3.424-3.709c1.292-2.591-0.461-12.056,0.744-14c1.202-1.951-0.835-2.964-1.851-0.928
	c-1.028,2.043-1.398,4.452-1.028,8.992c0.37,4.552-1.205,1.851-1.583-1.666c-0.366-3.523,0.751-5.098,1.034-6.397
	C164.3,70.674,163.001,71.038,162.363,71.506"/>
<path fill="#966A3D" d="M298.144,110.71c0,0,3.045-0.333,3.424,2.222c0.379,2.581-0.239,2.43-1.716,3.146
	c-1.464,0.705-1.565,1.993,0.627,1.569c2.178-0.432,3.229-1.043,3.135-3.328c-0.103-2.277-0.146-4.609-3.236-5.084
	C297.294,108.76,297.067,110.71,298.144,110.71"/>
<path fill="#966A3D" d="M154.612,70.837c0,0,3.134,3.248,4.716,2.935c1.569-0.312-0.104,4.304-0.104,4.304
	S155.124,75.867,154.612,70.837"/>
<path fill="#966A3D" d="M170.648,78.277c0,0,3.778,0.317,5.664-3.458c1.888-3.78-2.831,2.409-4.616,0.318
	C169.904,73.037,170.648,77.763,170.648,78.277"/>
<polygon fill="#FFD430" points="138.936,340.198 138.974,186.735 159.002,169.68 158.556,319.631 "/>
<path fill="#785342" d="M139.248,339.883h-1.858l0.04-152.902l0.632-1.398l19.403-16.982l2-0.297
	c0.66,0.305,1.085,0.972,1.085,1.701l-0.44,149.406l-0.497,1.255l-19.006,20.479c-0.52,0.562-1.329,0.741-2.03,0.475
	c-0.723-0.279-1.181-0.967-1.181-1.735h1.853l-1.364-1.265l18.504-19.944l0.431-144.574l-15.667,13.726l-0.037,152.055H139.248
	l-1.364-1.265L139.248,339.883z"/>
<path fill="#E29625" d="M342.461,315.511l0.556-147.788l19.203,14.485l0.188,157.28l-223.468,0.701l19.621-20.549
	c0,0,8.275,5.627,21.125,4.641c20.086-1.55,43.269-22.17,70.053-1.55c12.874-8.251,26.786-12.882,39.153-9.268
	c12.363,3.598,25.751,9.781,36.068,8.741C335.247,321.188,342.461,315.511,342.461,315.511"/>
<path fill="#785342" d="M342.201,315.292l-1.858-0.014l0.565-147.246c0-0.704,0.4-1.343,1.032-1.655l1.944,0.179l19.132,14.426
	l0.739,1.487l0.188,156.715c0,1.024-0.812,1.857-1.843,1.857l-222.839,0.697c-0.757,0-1.421-0.434-1.72-1.118
	c-0.288-0.682-0.148-1.479,0.365-2.024l19.555-20.479c0.637-0.655,1.645-0.766,2.385-0.258l0.246,0.163
	c1.301,0.791,7.554,4.253,16.76,4.253c0.927,0,1.89-0.039,2.87-0.111c6.347-0.473,13.311-3.054,20.772-5.596
	c7.477-2.541,15.46-5.008,24.006-5.021c8.397-0.02,17.296,2.47,26.368,9.457l-1.128,1.472l-1.001-1.562
	c10.019-6.4,20.725-10.752,31.141-10.765c3.186,0,6.342,0.416,9.419,1.311c11.544,3.384,23.787,8.8,33.039,8.758
	c0.758,0,1.498-0.046,2.209-0.116c4.849-0.475,9.008-2.043,11.945-3.518c1.47-0.733,2.629-1.438,3.411-1.938l0.87-0.613l0.274-0.203
	L342.201,315.292l-1.858-0.014L342.201,315.292l1.146,1.47c-0.158,0.102-7.576,5.946-18.436,7.037
	c-0.845,0.084-1.697,0.133-2.577,0.133c-10.562-0.047-22.833-5.661-34.074-8.897c-2.719-0.799-5.517-1.161-8.387-1.161
	c-9.355-0.019-19.496,3.998-29.133,10.176l-2.135-0.104c-8.517-6.516-16.432-8.665-24.112-8.68c-7.809,0-15.417,2.31-22.808,4.818
	c-7.403,2.515-14.574,5.227-21.68,5.783c-1.084,0.092-2.141,0.125-3.16,0.125c-11.609-0.006-18.908-4.934-19.086-5.047l1.047-1.54
	l1.345,1.284l-16.542,17.324l216.619-0.679l-0.19-153.935l-15.423-11.639l-0.549,143.542l-0.714,1.459L342.201,315.292z"/>
<path fill="#3D1E0B" d="M351.723,174.176l-1.059,1.541l-9.801-6.673l1.044-1.541l1.219,1.405c-0.187,0.148-6.008,5.165-15.834,5.183
	l-1.185-0.028c-5.521-0.265-12.94-3.396-21.062-6.469c-8.065-3.1-16.702-6.155-23.715-6.483c-0.71-0.037-1.395-0.054-2.059-0.054
	c-9.121,0.006-15.732,2.998-20.181,6.274c-2.229,1.633-3.905,3.348-5.034,4.766c-1.124,1.374-1.702,2.651-1.687,2.702l-1.05,4.885
	l-2.392-4.378l-0.043-0.066c-0.609-0.979-6.502-10.374-21.361-10.985l-0.708-0.015c-4.822-0.022-12.426,1.999-19.97,4.312
	c-7.58,2.313-15.148,4.875-20.551,5.886c-1.492,0.276-3.022,0.393-4.553,0.393c-10.385-0.037-21.206-5.216-21.333-5.254l0.795-1.677
	l1.183,1.434l-9.545,7.886h-18.556v168.141h94.695l-0.349,2.157l-0.038,0.32l-0.045,1.105c0,2.109,0.458,6.104,3.367,9.698
	c2.9,3.578,8.325,7.038,19.036,7.846l1.173,0.039c2.445,0.012,7.562-0.408,11.8-2.805c4.225-2.455,7.756-6.487,7.825-14.881
	l-0.044-1.436l-0.096-1.944h97.441V176.203l-17.926-0.177l-0.465-0.314L351.723,174.176l0.02-1.857l21.043,0.218v176.635H273.58
	v-1.853l1.859-0.099l0.029,1.618c0.062,9.539-4.517,15.273-9.72,18.116c-5.162,2.888-10.8,3.268-13.614,3.277l-1.459-0.048
	c-11.369-0.815-18.007-4.688-21.636-9.211c-3.632-4.514-4.192-9.413-4.192-12.032c0-1.204,0.12-1.939,0.135-2.021l1.836,0.3v1.858
	h-96.243V173.5h20.933l9.431-7.792l1.068,0.506c0,0,0.618,0.289,1.748,0.752c3.358,1.395,11.126,4.16,17.994,4.144
	c1.344,0,2.645-0.102,3.869-0.332c4.937-0.909,12.524-3.455,20.148-5.781c7.646-2.32,15.319-4.453,21.048-4.475l0.85,0.013
	c17.657,0.729,24.398,12.723,24.509,12.984l-1.628,0.893l-1.812-0.387c0.306-1.248,1.079-2.521,2.401-4.242
	c3.961-5.005,13.181-12.444,28.116-12.444c0.735,0,1.479,0.018,2.236,0.055c7.895,0.399,16.738,3.626,24.878,6.725
	c8.089,3.122,15.605,6.101,19.891,6.226l1.027,0.027c4.256,0,7.638-1.105,9.955-2.188c1.157-0.541,2.038-1.085,2.632-1.486
	l0.638-0.46l0.168-0.142l1.081-0.937l10.999,7.476L351.723,174.176l0.02-1.857L351.723,174.176z"/>
<polyline fill="#785342" points="344.131,314.522 363.597,338.112 360.729,340.478 341.261,316.889 "/>
<path fill="#603826" d="M251.198,321.529c0,0-15.533,13.739-16.129,15.977c-0.594,2.232,2.238,3.579,2.238,3.579
	s-10.891,12.985,7.609,20.446c18.513,7.476,27.22-13.909,19.113-25.373C253.579,321.376,251.198,321.529,251.198,321.529"/>
<path fill="#835221" d="M260.045,339.984l1.328,2.033c0.564,1.018,1.671,4.657,1.671,6.012c0,5.529-4.719,9.625-11.032,9.625
	c-6.319,0-11.041-4.705-11.041-10.234c0-2.004,0.962-6.264,2.224-6.872c0,0-2.893-7.613,7.144-8.894
	C256.229,330.883,261.258,337.705,260.045,339.984"/>
<path fill="#FFD300" d="M164.673,58.797c3.741-0.135,5.537,0,7.171,1.61c0.542,0.787,0.433,1.629-0.497,2.098
	c-2.042-0.224-2.51,1.492-4.083,2.438l-1.016-1.332c-0.744-1.354-1.577-2.342-2.318-3.703
	C163.649,58.901,163.52,58.855,164.673,58.797"/>
<path fill="#FFE280" d="M164.42,59.235c0,0,2.042,1.933,2.574,3.226c0.534,1.28,0.534-1.993,1.649-1.231
	c1.106,0.766,4.042,1.873,3.269-0.529C171.145,58.3,164.42,58.597,164.42,59.235"/>
<path fill="#FFE28A" d="M155.578,188.763l-0.631-2.667c0,0-0.179-3.291-0.638-4.222c-1.845-0.544-6.893,5.136-7.617,6.25
	c-0.729,1.106-0.643,1.183-0.643,1.183l-0.646,4.221c-2.157,43.567,1.19,94.591-3.583,137.198l-0.647,0.638l-0.544-0.102
	l-0.095-4.951c0.341-32.667-0.396-65.309,0.371-97.999l0.268-24.218c0,0,0.922-16.616,1.107-17.345
	c0.179-0.745,5.773-5.703,5.773-5.703l8.622-6.42c0.371,0.091,0.645,15.5-0.092,15.5
	C155.859,190.128,155.578,188.763,155.578,188.763"/>
<path fill="#231F20" d="M198.877,222.507c-2.453-1.747-4.808-3.893-6.141-5.226v-4.606c0,0,3.992,0,6.034-0.522
	c2.058-0.496,3.382-2.146,0.73-2.146c-2.657,0-6.66-0.092-6.66-0.092v-7.894c0-2.542-1.034-3.055-1.94-3.055
	c-0.929,0-2.262,0.517-2.262,3.785v7.165h-9.928c0,0-3.068,5.523-3.577,6.443c-0.519,0.922,1.949-0.606,3.687-1.32
	c1.731-0.736,8.493-1.956,9.815-1.956c0,0,0.552,4.787-3.066,7.785c-3.583,2.972-5.941,6.035-16.479,8.589
	c-1.047,0.255,0.61,2.468,4.192,2.979c3.577,0.495,8.119-1.541,14.025-9.421c1.22-1.642,1.54-0.927,1.54,0.823
	c0,1.738,0.511,11.665-0.416,13.816c-0.922,2.146,0.616,2.963,1.834,0.707c1.234-2.245,1.943-6.849,1.943-17.394
	c0-1.123,2.361,1.635,5.229,2.766C200.303,224.855,201.333,224.23,198.877,222.507 M219.204,223.029
	c2.178-2.649,3.666-5.212,3.666-5.212s12.581,0.072,13.665-0.378c0.895-0.806,2.191-4.281,1.737-4.734
	c-0.452-0.447-2.438,2.031-3.595,2.031h-10.064c0,0,5.037-9.677,5.751-10.924c0.893-0.268,1.428-0.807,1.346-1.706
	c-0.083-0.897-3.241-2.604-3.863-2.162l-2.88,1.628h-8.089c0.282-1.263-1.776-3.603-2.417-3.603c-0.625,0-0.348,0.268-1.524,3.679
	c-1.172,3.411-6.471,7.718-6.471,7.718s-0.445,0.714,0.725,0.737c4.141,0.082,8.261-5.396,8.261-5.396h8.531
	c1.078,0,1.524,0.354,1.078,1.433c-0.447,1.081-4.869,8.729-4.869,8.729c-2.305,0.072-9.26,0.044-11.573-0.091
	c-2.139-0.143-2.68-0.908-3.312,0.53c-0.625,1.449-1.166,3.411-1.166,3.411c0.804,1.27,3.589-0.805,4.769-0.805l7.434,0.061
	c1.617,0,1.776,0.073,1.776,0.073c-1.501,2.515-7.854,11.209-16.18,15.17c-3.952,1.891-8.755-1.464-8.755-0.571
	c-0.274,2.356,2.972,4.45,7.47,5.186c3.874,0.625,9.417-4.824,11.572-7.08c2.157-2.239,2.76-1.125,3.052-0.076
	c2.253,7.897,2.962,9.519,4.395,9.519h9.616c1.263,0,1.887-1.257,3.056-6.926c1.166-5.659,1.986-8.168,0.534-8.883
	c-1.441-0.725-12.396-0.385-12.396-0.385C219.057,224.002,218.623,223.668,219.204,223.029 M219.767,227.441
	c0.551-0.625,6.474-0.273,7.374-0.178c0.893,0.071,2.057,0.8,1.616,3.134c-0.454,2.342-1.079,5.212-1.801,5.576
	c-0.714,0.353-4.837,0.446-5.39,0.178C221.034,235.879,217.8,229.687,219.767,227.441"/>
<path fill="#231F20" d="M180.073,264.289c0,0-1.091,3.187-1.759,5.589c-0.654,2.412-2.957,5.805-3.937,7.34
	c-0.986,1.53-0.114,3.297,2.076,1.97c2.193-1.314,5.256-5.146,5.256-6.685c1.64,0,7.228-0.437,7.228-0.437l-0.214,7.34
	c0,0-6.133,5.476-13.579,7.232c-1.922,0.451-3.397,2.077-0.546,3.833c1.313,0.554,5.588,0.215,10.632-3.945l2.85-1.857
	c0.44,0,0.102,6.46,0.102,8.317c0,1.854,1.978,1.437,2.63-1.531c0.659-2.954,1.646-10.182,1.646-10.182s6.028-5.257,4.497-7.123
	l-3.73,2.633c0,0,0.333-4.385,0.333-5.371c1.864-0.326,6.839-0.987,6.899-2.191c0.109-1.973-7.231-1.308-7.231-1.308
	s0.333-4.938,0.221-7.229c-0.065-1.16-2.178-2.132-2.852-2.091c0,0-1.977,0.332-1.977,1.977v7.446h-6.125
	c0,0,0.318-1.208,0.22-2.297C182.583,264.617,180.839,263.086,180.073,264.289"/>
<path fill="#231F20" d="M206.532,260.248c0,0,0.447,8.109-6.897,14.9c-0.654,0.604-0.854,2.497,2.195,0.881
	c3.343-1.796,5.255-5.04,5.255-5.04h4.719c0.551,0-3.806,16.265-15.672,18.634c0,0-1.532,0.652,0.546,1.531
	c2.075,0.868,8.511-1.279,11.906-5.445c3.396-4.158,6.502-11.105,7.603-14.841c2.957-0.211,6.184-0.211,6.184-0.211
	s-4.981,16.446-15.951,23.895c-0.687,0.46,0.878,0.985,4.396-0.22c3.497-1.213,9.853-7.127,15.667-24.111l6.348-0.661
	c0.653,0.335,0.119,1.759-0.653,4.058c-0.773,2.292-5.488,13.705-8.445,15.781c-1.276,0.895-5.366-1.312-5.366-0.771
	c0,0.556,2.962,4.283,5.039,4.283c2.08,0,4.72-1.981,7.342-7.467c2.631-5.471,6.46-14.13,6.9-16.863
	c0.453-2.745-1.858-4.284-4.815-3.402c-2.948,0.871-11.73,2.297-22.906,2.075c-1.09-0.013-0.32-1.979,0-3.729
	c0.333-1.747,0.447-5.254-1.859-5.254C205.771,258.275,206.532,260.248,206.532,260.248"/>
<path fill="#231F20" d="M291.159,199.882c-1.437-0.168-13.513,1.674-17.476,2.015c-3.977,0.365-7.854-1.122-8.492,0.942
	c-0.621,2.076,1.63,3.611,3.606,3.888c0,0,2.259,6.305,0.096,25.685c-0.15,1.333-0.369,2.838,0.711,2.794
	c1.901-0.086,3.164-2.794,5.413-2.881c2.268-0.092,13.706-1.006,15.052-1.006c1.345,0,1.09,0.461,1.265-5.127
	c0.173-5.587-0.087-18.482,0.638-22.09C292.686,200.513,292.603,200.061,291.159,199.882 M273.496,214.483
	c0,0,7.851-1.724,13.879-1.625c0.551,0.007,0.812,1.091,0.728,3.256c-0.082,2.163,0.261,2.964-1.438,3.134
	c-1.72,0.185-11.445,1.263-12.541,1.442c-1.082,0.195-0.889-0.98-0.799-3.143C273.408,215.386,273.232,215.11,273.496,214.483
	 M288.099,224.122c-0.087,1.449,0.261,3.78-1.002,3.78c-1.264,0-11.163,0.544-12.976,1.094c-1.803,0.539-0.089-0.632-0.35-5.129
	c0,0,5.312-1.091,10.45-1.264C289.361,222.418,288.187,222.677,288.099,224.122 M288.187,207.54c0,1.358-0.088,1.895-1.265,1.895
	c-1.183,0-10.45,1.091-11.271,1.345c-0.807,0.283-2.344,0.55-2.344-0.625c0-1.166-0.625-3.882-0.625-3.882
	c0.726-0.257,0.726-1.165,2.162-1.351c1.427-0.17,9.016-1.176,11.54-1.176C288.911,203.748,288.187,204.752,288.187,207.54"/>
<path fill="#231F20" d="M325.711,239.385c-0.517-2.058-2.569-11.851-2.569-16.225c0-4.369,0.769-20.86,1.933-23.842
	c1.145-2.95,1.283-3.722-2.192-3.722c-3.483,0-21.521,2.572-23.445,2.572c-1.928,0-2.542,2.364-1.212,3.182
	c0,0-0.151,1.264,0.954,1.59c0.777,0.766,7.723,16.223-1.414,27.304c-0.999,1.221-6.838,8.245-16.098,7.083
	c-1.178-0.154-2.698-0.261-1.412,1.932c1.289,2.177,6.042,4.629,12.864,1.672c6.839-2.942,12.884-14.297,13.152-16.489
	c1.801,0,13.136-0.12,13.136-0.12s-0.773,12.227,4.125,16.353C324.647,241.623,326.219,241.434,325.711,239.385 M319.274,220.45
	c-2.194,0.134-12.231,0.134-12.231,0.134s0.246-5.664,0.124-8.113c0,0,11.329-0.779,12.231-1.416
	C320.296,210.415,319.274,218.515,319.274,220.45 M320.819,202.038c-0.385,2.565,0,4.892-1.293,5.283
	c-1.292,0.372-11.209,1.667-13.399,1.667c-0.331-1.731-0.883-3.539-1.508-4.891c-0.817-1.752-1.641-2.837-1.057-2.837
	c0,0,7.976-0.389,12.104-0.647C319.787,200.365,321.227,199.458,320.819,202.038"/>
<path fill="#231F20" d="M271.129,260.104c0,0,3.192,0.958,7.462-0.422c4.661-1.523,4.986-0.216,4.765,1.295
	c-0.205,1.514-4.865,2.602-6.929,2.602C269.945,263.58,268.863,260.104,271.129,260.104"/>
<path fill="#231F20" d="M267.354,271.571c0,0,4.864,0.115,9.305-0.758c4.433-0.856,9.412-2.695,8.97-0.218
	c-0.436,2.494-5.302,19.046-14.714,21.095c-1.275,0.274-8.644,1.509-9.942-5.518c-0.316-1.713,1.084-0.102,2.927,0.656
	c1.835,0.743,6.488,1.509,10.486-2.918c4.002-4.445,6.045-7.046,6.815-10.28c0.115-0.755-0.08-1.017-6.706,0.103
	c-5.081,0.868-7.896,4.863-10.162,0.553C263.567,271.457,267.354,271.571,267.354,271.571"/>
<path fill="#231F20" d="M294.936,256.867c0,0,27.368-0.54,29.52-0.54c2.179,0-0.536,2.373-1.952,2.6
	c-1.395,0.217-22.159,0.757-24.866,0.87c-2.699,0.088-3.252,2.164-4.543,1.178C291.797,260.001,294.383,257.084,294.936,256.867"/>
<path fill="#231F20" d="M307.36,252.223c0,0,1.403-1.089,2.717-0.554c1.292,0.554,0.101,2.388-0.445,4.233
	c-0.543,1.834-0.866,7.339-0.866,7.339l-1.183,1.415c0,0-2.013-0.215-2.049-1.62C305.417,259.899,305.968,252.759,307.36,252.223"/>
<path fill="#231F20" d="M323.473,265.522c-0.103-1.188-3.772-2.282-12.758-2.373c-8.972-0.122-20.332,3.348-20.332,3.348
	c-1.189,1.399,0.213,4.117,0.971,6.699c0.611,2.089,1.981,4.718,3.144,4.879c2.856,0.362,12.967-0.437,18.604-0.885
	c5.624-0.421,7.024-0.759,8.21-2.152C322.501,273.631,323.59,266.709,323.473,265.522 M301.628,274.387
	c-0.437,1.406-3.876,0.975-5.515,0.762c-0.661-0.093-2.803-6.279-1.713-6.698c0,0,5.941-1.843,6.486-0.771
	C301.423,268.769,302.059,272.987,301.628,274.387 M310.395,274.387c-0.765,0.435-4.213,0.651-5.183,0.651
	c-0.976,0-0.976-0.332-0.976-1.844c0-1.519-0.545-6.268,0.857-6.697l5.523-0.327c0.529,0.116,0.211,2.493,0.211,4.538
	C310.832,272.774,311.15,273.952,310.395,274.387 M317.856,273.4c-1.081,0.319-4.587,0.886-4.587,0.452l0.261-7.553
	c0,0,2.665-0.061,4.064-0.061c1.407,0,1.643-0.05,1.643,0.933C319.237,268.145,318.93,273.082,317.856,273.4"/>
<path fill="#231F20" d="M283.337,289.325c0,0,8.464-6.397,9.655-7.367c1.185-0.974,2.918,0.426,3.991,0.864
	c1.09,0.451,15.256,7.787,22.385,7.356c4.831-0.287,9.441-4.05,9.419-4.008c0,0,0.652,1.416-0.334,3.034
	c-0.973,1.619-5.204,6.379-11.937,5.372c-4.705-0.711-17.79-8.077-21.034-9.699c-0.82-0.417-1.3-0.434-2.162,0.317
	c-0.864,0.757-5.83,5.093-7.021,6.057c-1.204,0.979-1.524,0.661-2.508,0C282.814,290.609,282.566,289.903,283.337,289.325"/>
<path fill="#231F20" d="M307.47,283.664c0,0,1.358-0.612,2.768-0.473c1.404,0.135,2.154,0.886,3.033-0.142
	c0.871-1.018,0.133-2.009-1.625-2.555c-1.741-0.539-4.309-0.347-5.792,1.537C304.966,283.184,306.635,284.18,307.47,283.664"/>
<path fill="#231F20" d="M319.075,280.891c0,0,4.037,2.438,5.394,2.497c1.335,0.073,1.961-0.479,0.808-2.093
	c-1.145-1.608-3.036-2.696-5.398-2.624C318.365,278.713,318.596,280.585,319.075,280.891"/>
</svg>
